<svg id="图层_1" data-name="图层 1" xmlns="http://www.w3.org/2000/svg" viewBox="0 0 42 42"><defs><style>.cls-1{fill:#5b8bff;}</style></defs><title>24*24</title><path class="cls-1" d="M10.11,24.33H30.65V17.52H10.11Zm16.24-4.4a1,1,0,0,1,1,1,1,1,0,0,1-.88,1,1,1,0,0,1-.08-2Zm-2.93,0a.94.94,0,0,1,.85.6,1.06,1.06,0,0,1-.19,1.08.93.93,0,0,1-1,.24,1,1,0,0,1-.58-.92,1,1,0,0,1,.91-1ZM13,19.91h5.13v2H13Zm-2,13H29.79a.86.86,0,0,0,.86-.85V26.12H10.11v5.95A.85.85,0,0,0,11,32.92Zm15.39-4.44a1,1,0,0,1,1,1,1,1,0,0,1-.88,1,1,1,0,0,1-.08-2Zm-2.93,0a.94.94,0,0,1,.85.6,1.06,1.06,0,0,1-.19,1.08.93.93,0,0,1-1,.24,1,1,0,0,1-.58-.92,1,1,0,0,1,.91-1ZM13,28.51h5.13v2H13ZM29.79,8.92H11a.86.86,0,0,0-.85.86v6H30.65v-6A.87.87,0,0,0,29.79,8.92ZM18.11,13.34H13v-2h5.13Zm6-.28a.93.93,0,0,1-1,.24,1,1,0,0,1-.58-.92,1,1,0,0,1,.91-1,.94.94,0,0,1,.85.6A1.06,1.06,0,0,1,24.08,13.06Zm2.35.32a1,1,0,1,1,.88-1A1,1,0,0,1,26.43,13.38Z"/></svg>