<svg id="图层_1" data-name="图层 1" xmlns="http://www.w3.org/2000/svg" viewBox="0 0 42 42"><defs><style>.cls-1{fill:#5b8bff;}</style></defs><title>24*24</title><path class="cls-1" d="M26.43,9.64a1,1,0,0,1,1,1v2h2.84a1,1,0,0,1,1,1v3h1.08a1,1,0,0,1,1,1v9a1,1,0,0,1-1,1h-.92l.05,3a1,1,0,0,1-1,1h0l-1.08,0a1,1,0,0,0-1,1v0a1,1,0,0,1-1,1H25.55a1,1,0,0,1-1-1,1,1,0,0,0-1-1h0l-3.87,0a1,1,0,0,0-.95,1,.94.94,0,0,1-.95.94H15.44a1,1,0,0,1-1-1,1,1,0,0,0-1-1.07h-.9a1,1,0,0,1-1-1V27.68H10.39a1,1,0,0,1-1-1v-9a1,1,0,0,1,1-1h1.08v-3a1,1,0,0,1,1-1h2.84v-2a1,1,0,0,1,.71-1,1,1,0,0,1,1.37.94v2h3v-2a1,1,0,0,1,.71-1,1,1,0,0,1,1.37.94v2h2.88v-2A1,1,0,0,1,26.43,9.64Zm-9,8.8a1,1,0,0,0-.65-1,1,1,0,0,0-1.42.84v8.45a1,1,0,0,0,2.08.12V18.44Zm5.12,0a1,1,0,0,0-.65-1,1,1,0,0,0-1.42.84v8.45a1,1,0,0,0,2.08.12V18.44Zm5,0a1,1,0,0,0-.65-1,1,1,0,0,0-1.42.84v8.45a1,1,0,0,0,2.08.12V18.44Z"/></svg>