<svg id="图层_1" data-name="图层 1" xmlns="http://www.w3.org/2000/svg" viewBox="0 0 42 42"><defs><style>.cls-1{fill:#5b8bff;}</style></defs><title>24*24</title><path class="cls-1" d="M21,9a11.82,11.82,0,0,0,0,23.64,11.55,11.55,0,0,0,2.29-.23,5.92,5.92,0,0,1-2.09-4.52,5.84,5.84,0,0,1,.85-3v-.23h.13a6,6,0,0,1,2.22-2H22.05V19.07h3.54a14.32,14.32,0,0,1,0,3.07,6,6,0,0,1,1.54-.2l.53,0a14,14,0,0,0,0-2.89h2.81a1.38,1.38,0,0,1,.14.74,4.76,4.76,0,0,1,0,2.06c0,.3-.14.45-.14.74h-.55a5.94,5.94,0,0,1,2.25,2.06,11.7,11.7,0,0,0,.66-3.85A11.86,11.86,0,0,0,21,9ZM11.4,21.87a4.76,4.76,0,0,1,0-2.06c0-.3.15-.45.15-.74h2.66a14,14,0,0,0,0,3.54H11.55A1.3,1.3,0,0,1,11.4,21.87Zm.74,3H14.5a17.17,17.17,0,0,0,1.63,4.43A10.4,10.4,0,0,1,12.14,24.86Zm2.36-8H12.14a10.4,10.4,0,0,1,4-4.43A14.57,14.57,0,0,0,14.5,16.82Zm5.3,13.5c-1.33-.73-2.51-2.8-3.1-5.46h3.1Zm.12-7.71H16.37a14,14,0,0,1,0-3.54h3.55Zm0-5.79H16.67c.74-2.66,1.92-4.73,3.25-5.32Zm2.24,0V11.35c1.33.74,2.52,2.81,3.11,5.47Zm5.34,0a17.17,17.17,0,0,0-1.62-4.43,10.53,10.53,0,0,1,4,4.43Z"/><polygon class="cls-1" points="25.85 27.79 25.85 27.79 25.85 27.79 25.85 27.79"/><path class="cls-1" d="M27.07,29.34V28.13H25.86A1.4,1.4,0,0,0,27.07,29.34Z"/><path class="cls-1" d="M25.54,28.13h-1a2.68,2.68,0,0,0,2.51,2.51v-1A1.7,1.7,0,0,1,25.54,28.13Z"/><path class="cls-1" d="M24.56,27.79h1a1.7,1.7,0,0,1,1.53-1.54v-1A2.68,2.68,0,0,0,24.56,27.79Z"/><path class="cls-1" d="M25.85,27.79h1.22V26.58A1.4,1.4,0,0,0,25.85,27.79Z"/><path class="cls-1" d="M29.87,28.13h-1a1.69,1.69,0,0,1-1.54,1.53v1A2.68,2.68,0,0,0,29.87,28.13Z"/><path class="cls-1" d="M23.08,24.73V29c0,2.55,4.14,4,4.14,4s4.14-1.44,4.14-4V24.73l-4.14-1.47ZM30.22,28a3,3,0,1,1-3-3A3,3,0,0,1,30.22,28Z"/><path class="cls-1" d="M28.9,27.79h1a2.67,2.67,0,0,0-2.51-2.51v1A1.71,1.71,0,0,1,28.9,27.79Z"/><path class="cls-1" d="M28.57,28.13H27.36v1.21A1.39,1.39,0,0,0,28.57,28.13Z"/><path class="cls-1" d="M27.36,26.58v1.21h1.21A1.38,1.38,0,0,0,27.36,26.58Z"/></svg>