<?xml version="1.0" encoding="utf-8"?>
<!-- Generator: Adobe Illustrator 22.1.0, SVG Export Plug-In . SVG Version: 6.00 Build 0)  -->
<svg version="1.1" id="图层_1" xmlns="http://www.w3.org/2000/svg" xmlns:xlink="http://www.w3.org/1999/xlink" x="0px" y="0px"
	 viewBox="0 0 42 42" style="enable-background:new 0 0 42 42;" xml:space="preserve">
<style type="text/css">
	.st0{fill:#5B8BFF;}
</style>
<g>
	<path class="st0" d="M21.2,16c0,0.9,0.2,1.8,0.4,2.6c0,0,1.9,4.5,5.5,5.7c1.1-0.7,2-1.7,2.7-2.8l0.2-0.3c0.1-0.1,0.2-0.3,0.2-0.4
		l0.1-0.3c0.6-1.4,1-2.9,0.9-4.6h0c0-0.5-0.1-2.4-0.4-3c-0.7,0.3-2,1.2-2.3,2.1c-1.4-0.2-3-0.2-4.5,0.1c-0.2-1-1.4-1.7-2.3-2.2
		C21.3,13.5,21.1,15,21.2,16C21.2,16,21.2,16,21.2,16L21.2,16L21.2,16z"/>
	<path class="st0" d="M32.6,28.9c-0.5-0.5-1.3-0.7-2.1-0.7c-0.3-0.4-1.9-2.1-2.9-3.1l-0.5,0.3l-0.4-0.1c-4-1.3-6-6-6.1-6.2l0-0.1
		l0,0c-2.8,0.9-5.8,2.7-7.5,4.5l-0.3,0.3c-0.1,0.1-0.3,0.3-0.4,0.4c-2,2.2-3.5,4.7-3.5,5.1v0.2h2.7l0-0.3c-0.1-0.8,0.1-1.8,0.8-2.5
		c0.4-0.5,1-1,2-1.2c0.8-0.3,3-0.1,3-0.1c4.3,0.4,8.4,2.1,13,4.5H33l0-0.1C33,29.5,32.9,29.2,32.6,28.9L32.6,28.9L32.6,28.9z"/>
	<path class="st0" d="M19.4,27.3c-0.3-0.2-0.8-0.2-1.2-0.1c-0.3-0.3-0.5-0.7-0.6-1.1c0,0-0.1,0-0.1,0c0,0-1.3-0.1-2.3-0.1
		c0.8,0.7,1.6,1.4,2.6,2h2v-0.2C19.7,27.7,19.6,27.5,19.4,27.3L19.4,27.3L19.4,27.3z"/>
	<path class="st0" d="M12.4,23l0.2-0.2c0,0,0.1-0.1,0.1-0.1c-0.5-0.9-0.8-1.6-0.9-2.2c-0.1-0.9,0.1-1.8,0.6-2.5
		c0.9-1.1,2.1-1.2,3.4-0.9c0,0.2,0,0.4,0.1,0.5c0.3,0.5,2.1,0.7,3.2,0.2c-0.8-1.1-2.4-1.7-2.8-1.4c-0.1,0.1-0.3,0.2-0.3,0.4
		c-0.4-0.1-0.9-0.1-1.2-0.1c-1.1,0-2,0.4-2.6,1.2c-0.6,0.8-0.9,1.7-0.7,2.8C11.5,21.4,11.9,22.2,12.4,23L12.4,23L12.4,23z"/>
</g>
</svg>
