<?xml version="1.0" encoding="utf-8"?>
<!-- Generator: Adobe Illustrator 22.1.0, SVG Export Plug-In . SVG Version: 6.00 Build 0)  -->
<svg version="1.1" id="图层_1" xmlns="http://www.w3.org/2000/svg" xmlns:xlink="http://www.w3.org/1999/xlink" x="0px" y="0px"
	 viewBox="0 0 42 42" style="enable-background:new 0 0 42 42;" xml:space="preserve">
<style type="text/css">
	.st0{fill:#5B8BFF;}
</style>
<g>
	<path class="st0" d="M9,31c0,1.1,0.9,2,2,2h20c1.1,0,2-0.9,2-2v-5.5c0-1.1-0.9-2-2-2h-6v-5.3c0-0.7-0.6-1.2-1.3-1.2
		c-0.7,0-1.2,0.6-1.2,1.2v5.3H11c-1.1,0-2,0.9-2,2V31z M11.5,28.2c0-0.7,0.6-1.3,1.3-1.3c0.7,0,1.3,0.6,1.3,1.3s-0.6,1.3-1.3,1.3
		c0,0,0,0,0,0C12.1,29.5,11.5,28.9,11.5,28.2z M16,28.2c0-0.7,0.6-1.3,1.3-1.3s1.3,0.6,1.3,1.3s-0.6,1.3-1.3,1.3c0,0,0,0,0,0
		C16.6,29.5,16,28.9,16,28.2z M23.7,13c-2.9,0-5.2,2.3-5.2,5.2c0,0,0,0,0,0c0,0.7,0.5,1.3,1.2,1.3S21,19,21,18.3c0,0,0-0.1,0-0.1
		c0-1.5,1.3-2.7,2.8-2.7c1.5,0,2.7,1.2,2.7,2.7c0,0.7,0.5,1.3,1.2,1.3c0.7,0,1.3-0.5,1.3-1.2c0,0,0-0.1,0-0.1
		C29,15.4,26.6,13,23.7,13C23.7,13,23.7,13,23.7,13z M23.7,9c-5.1,0-9.2,4.1-9.2,9.2c0,0,0,0,0,0c0,0.7,0.5,1.3,1.2,1.3
		c0.7,0,1.3-0.5,1.3-1.2c0,0,0-0.1,0-0.1c0.1-3.7,3.1-6.7,6.8-6.7c3.7,0.1,6.6,3,6.7,6.7c0,0.7,0.5,1.3,1.2,1.3S33,19,33,18.3
		c0,0,0-0.1,0-0.1C33,13.1,28.9,9,23.7,9C23.8,9,23.8,9,23.7,9z"/>
</g>
</svg>
