<?xml version="1.0" encoding="utf-8"?>
<!-- Generator: Adobe Illustrator 22.1.0, SVG Export Plug-In . SVG Version: 6.00 Build 0)  -->
<svg version="1.1" id="图层_1" xmlns="http://www.w3.org/2000/svg" xmlns:xlink="http://www.w3.org/1999/xlink" x="0px" y="0px"
	 viewBox="0 0 42 42" style="enable-background:new 0 0 42 42;" xml:space="preserve">
<style type="text/css">
	.st0{fill:#5B8BFF;}
</style>
<g>
	<path class="st0" d="M32.5,17.6l-10.8,4.8c-0.5,0.2-1,0.2-1.5,0L9.5,17.6C9.2,17.5,9,17.2,9,16.9c0-0.3,0.2-0.6,0.5-0.8l10.8-4.8
		c0.5-0.2,1-0.2,1.5,0l10.8,4.8c0.3,0.1,0.5,0.4,0.5,0.8C33,17.2,32.8,17.5,32.5,17.6L32.5,17.6L32.5,17.6z M21,27.5
		c-0.4,0-0.8-0.1-1.2-0.2L9.7,22.7c-0.4-0.2-0.6-0.5-0.6-0.9c0-0.4,0.1-0.8,0.5-1c0.3-0.2,0.7-0.3,1.1-0.1l10.2,4.6
		c0.1,0.1,0.3,0.1,0.5,0l10.2-4.6c0.6-0.2,1.2,0,1.4,0.6c0.2,0.5,0,1.2-0.5,1.4l-10.2,4.6C21.8,27.4,21.4,27.5,21,27.5L21,27.5z
		 M21,32.3c-0.4,0-0.8-0.1-1.2-0.2L9.7,27.4c-0.5-0.2-0.8-0.9-0.6-1.4c0,0,0,0,0,0c0.3-0.5,0.9-0.8,1.5-0.5l10.2,4.6
		c0.1,0.1,0.3,0.1,0.5,0l10.2-4.6c0.5-0.2,1.2,0,1.4,0.6c0.2,0.5,0,1.2-0.5,1.4L22.2,32C21.8,32.2,21.4,32.3,21,32.3L21,32.3z"/>
</g>
</svg>
