<?xml version="1.0" encoding="utf-8"?>
<!-- Generator: Adobe Illustrator 22.1.0, SVG Export Plug-In . SVG Version: 6.00 Build 0)  -->
<svg version="1.1" id="图层_1" xmlns="http://www.w3.org/2000/svg" xmlns:xlink="http://www.w3.org/1999/xlink" x="0px" y="0px"
	 viewBox="0 0 42 42" style="enable-background:new 0 0 42 42;" xml:space="preserve">
<style type="text/css">
	.st0{fill:#5B8BFF;}
</style>
<g>
	<path class="st0" d="M31.2,28.5c-0.6-0.3-1.1-0.7-1.1-1.4c0-0.8-0.5-1.3-0.5-1.3s0.5-1.7,0-3.2c-0.5-1.4-2.1-3.7-3.3-5.4
		c-1.2-1.7-0.2-3.7-1.3-6.2c-1.1-2.5-4-2.3-5.7-1.3c-1.6,1.1-1.1,3.8-1,5c0.1,1.2,0,2.1-0.1,2.4c-0.1,0.5-1.1,1.7-1.8,2.6
		c-0.7,1-1.1,3.1-1.7,4c-0.5,0.8-0.2,1.6-0.2,1.6s-0.3,0.1-0.6,0.7c-0.3,0.5-0.8,0.8-1.8,1c-0.9,0.2-0.9,0.8-0.7,1.4
		c0.2,0.7,0,1-0.3,1.9c-0.3,0.9,1,1.1,2.4,1.2c1.2,0.1,2.7,0.9,3.9,1.1c1.2,0.1,1.6-0.8,1.6-0.8s1.3-0.3,2.8-0.3s2.8,0.3,2.8,0.3
		s0.3,0.6,0.7,0.8c0.5,0.3,1.6,0.3,2.2-0.4c0.7-0.7,2.5-1.6,3.5-2.1C32,29.7,31.8,28.8,31.2,28.5L31.2,28.5z M22.3,12.3
		c0.6,0,1.1,0.6,1.1,1.4c0,0.5-0.3,1-0.6,1.2c-0.1,0-0.2-0.1-0.3-0.1c0.2-0.1,0.4-0.4,0.4-0.7c0-0.4-0.3-0.8-0.6-0.8
		s-0.6,0.3-0.6,0.8c0,0.2,0,0.3,0.1,0.4c-0.2-0.1-0.4-0.2-0.5-0.2c-0.1-0.2-0.1-0.4-0.1-0.7C21.2,12.9,21.7,12.3,22.3,12.3z
		 M22.2,15.2c0.3,0.1,0.7,0.3,0.6,0.5c0,0.2-0.2,0.2-0.6,0.5c-0.4,0.3-1.3,0.8-1.7,0.9c-0.3,0-0.5-0.1-0.8-0.3
		c-0.3-0.3-0.9-0.8-0.7-1.1c0,0,0.5-0.3,0.7-0.5c0.2-0.2,0.7-0.6,1-0.6C21.1,14.7,21.9,15.1,22.2,15.2z M19.3,12.5
		c0.5,0,0.9,0.6,0.9,1.3v0.4c-0.1,0-0.3,0.1-0.4,0.2c-0.1,0-0.1,0.1-0.2,0.1c0.1-0.1,0.1-0.4,0.1-0.6c0-0.4-0.3-0.7-0.6-0.6
		c-0.3,0-0.4,0.4-0.4,0.8c0.1,0.4,0.3,0.7,0.6,0.6c0,0.1-0.1,0.2-0.3,0.3c-0.3-0.1-0.6-0.6-0.6-1.2C18.4,13.1,18.8,12.5,19.3,12.5z
		 M18.4,31.2c-0.1,0.5-0.7,0.9-0.7,0.9c-0.6,0.2-2.2-0.5-2.9-0.8c-0.7-0.3-2.6-0.4-2.8-0.6c-0.2-0.3,0.1-0.8,0.2-1.4
		c0.1-0.6-0.2-0.9-0.1-1.3c0.1-0.4,1.2-0.4,1.8-0.6c0.4-0.3,0.5-1,0.9-1.2c0.3-0.2,1,0.5,1.3,0.9c0.1,0.3,1.1,2.1,1.6,2.5
		C18.1,30.1,18.5,30.6,18.4,31.2z M25,26c-0.1,0.5-0.1,2.4-0.1,2.4s-1.1,1.6-3,1.8c-1.8,0.3-2.7,0.1-2.7,0.1l-1-1.1
		c0,0,0.8-0.1,0.7-0.9c-0.1-0.8-2.4-1.8-2.8-2.8c-0.4-0.9-0.1-2.5,0.4-3.4c0.5-0.8,0.8-2.5,1.3-3.2c0.5-0.7,0.9-1.9,0.7-2.5
		c0,0,1.1,1.3,2,1.1c0.8-0.2,2.6-1.5,2.8-1.3c0.3,0.2,2.5,5.1,2.8,6.7c0.2,1.5-0.1,2.7-0.1,2.7S25.1,25.5,25,26L25,26z M30.8,29.4
		c-0.3,0.3-2.3,1.1-2.9,1.7c-0.6,0.6-1.3,1.1-1.9,0.9c-0.5-0.1-0.8-0.8-0.7-1.7c0.2-0.9,0.4-1.9,0.3-2.5c-0.1-0.6-0.1-1.3,0-1.4
		c0.1-0.1,0.4-0.1,0.4-0.1s-0.1,1.1,0.5,1.4c0.6,0.3,1.7-0.1,2-0.4c0.3-0.3,0.5-0.7,0.5-0.7s0.3,0.1,0.3,0.6c0,0.5,0.2,1.1,0.6,1.3
		C30.5,28.8,31.2,29.1,30.8,29.4z"/>
</g>
</svg>
