<?xml version="1.0" encoding="utf-8"?>
<!-- Generator: Adobe Illustrator 22.1.0, SVG Export Plug-In . SVG Version: 6.00 Build 0)  -->
<svg version="1.1" id="图层_1" xmlns="http://www.w3.org/2000/svg" xmlns:xlink="http://www.w3.org/1999/xlink" x="0px" y="0px"
	 viewBox="0 0 42 42" style="enable-background:new 0 0 42 42;" xml:space="preserve">
<style type="text/css">
	.st0{fill:#5B8BFF;}
</style>
<g>
	<path class="st0" d="M27.5,9H15.1c-0.9,0-1.6,0.7-1.6,1.5v21.8c0,0.4,0.3,0.8,0.8,0.8h14c0.4,0,0.8-0.3,0.8-0.8V10.5
		C29.1,9.7,28.4,9,27.5,9z M23.3,29.1c-0.5,0.4-1.1,0.7-1.8,0.7h0c-1.5,0-2.8-1.1-2.7-2.5c0-0.6,0.3-1.2,0.8-1.6
		c0.5-0.4,1.1-0.7,1.8-0.7h0.1c1.4,0,2.6,1.1,2.6,2.4C24,28,23.7,28.6,23.3,29.1L23.3,29.1z M25.5,17.7h-8.5c-0.2,0-0.4-0.2-0.4-0.4
		v-0.8c0-0.2,0.2-0.4,0.4-0.4h8.5c0.2,0,0.4,0.2,0.4,0.4v0.8C25.8,17.6,25.7,17.7,25.5,17.7z M25.6,13.4H17c-0.2,0-0.4-0.2-0.4-0.4
		v-0.8c0-0.2,0.2-0.4,0.4-0.4h8.5c0.2,0,0.4,0.2,0.4,0.4V13C26,13.3,25.8,13.4,25.6,13.4z"/>
</g>
</svg>
