<?xml version="1.0" encoding="utf-8"?>
<!-- Generator: Adobe Illustrator 22.1.0, SVG Export Plug-In . SVG Version: 6.00 Build 0)  -->
<svg version="1.1" id="图层_1" xmlns="http://www.w3.org/2000/svg" xmlns:xlink="http://www.w3.org/1999/xlink" x="0px" y="0px"
	 viewBox="0 0 42 42" style="enable-background:new 0 0 42 42;" xml:space="preserve">
<style type="text/css">
	.st0{fill:#5B8BFF;}
</style>
<g>
	<path class="st0" d="M20.6,20.2c5.8,0,10.5-1.5,10.5-3.3v-2.6c0-1.8-4.7-3.3-10.5-3.3s-10.5,1.5-10.5,3.3v2.6
		C10.1,18.7,14.8,20.2,20.6,20.2z"/>
	<path class="st0" d="M23.9,28.1c0-0.1,0-0.1-0.1-0.2c-1,0.1-2.1,0.2-3.2,0.2c-5.8,0-10.5-1.5-10.5-3.3v3.9c0,1.8,4.7,3.3,10.5,3.3
		c2.3,0,4.4-0.2,6.1-0.6c-0.4-0.3-0.8-0.6-1.1-0.9C24.9,29.8,24.3,29,23.9,28.1z"/>
	<path class="st0" d="M20.6,26.1c0.9,0,1.8,0,2.6-0.1c0-0.3-0.1-0.5-0.1-0.8c0-0.9,0.2-1.7,0.5-2.4c0.1-0.3,0.3-0.6,0.4-0.8
		c-1.1,0.1-2.3,0.2-3.5,0.2c-5.8,0-10.5-1.5-10.5-3.3v3.9C10.1,24.6,14.8,26.1,20.6,26.1z"/>
	<path class="st0" d="M31,30.2c-0.7,0-1.4-0.1-2-0.4c-0.6-0.3-1.1-0.7-1.6-1.1c-0.9-0.9-1.4-2.1-1.4-3.2c0-0.5,0.1-1,0.3-1.5
		c0.2-0.4,0.4-0.7,0.7-1c0.5-0.4,1.2-0.7,1.8-0.7c0.6,0,1,0.3,1.2,0.5c0.2,0.3,0.4,0.7,0.4,1c0,0.2-0.1,0.4-0.3,0.6
		c-0.1,0.1-0.3,0.2-0.4,0.2c-0.1,0-0.1,0-0.2-0.1c0,0,0-0.1,0-0.2c0-0.2,0-0.2,0-0.2c0,0,0,0,0,0c0.3-0.1,0.4-0.4,0.3-0.7
		c-0.1-0.2-0.3-0.4-0.5-0.4c-0.1,0-0.2,0-0.3,0.1c-0.5,0.2-0.8,0.7-0.8,1.3c0,0.4,0.1,0.7,0.4,1c0.3,0.3,0.6,0.5,1,0.5
		c0.5,0,0.9-0.2,1.3-0.5c0.4-0.4,0.6-0.9,0.6-1.4c0-0.6-0.3-1.3-0.7-1.8c-0.5-0.6-1.3-0.9-2.1-0.9c-0.5,0-1,0.1-1.5,0.3
		c-1,0.4-1.8,1.2-2.2,2.2c-0.2,0.6-0.3,1.2-0.3,1.8c0,0.8,0.2,1.5,0.5,2.2c0.3,0.7,0.8,1.3,1.4,1.9c0.6,0.5,1.2,1,2,1.3
		c0.8,0.3,1.5,0.5,2.3,0.5c0.4,0,0.6-0.2,0.6-0.5C31.6,30.4,31.3,30.2,31,30.2z"/>
</g>
</svg>
