<?xml version="1.0" encoding="utf-8"?>
<!-- Generator: Adobe Illustrator 22.1.0, SVG Export Plug-In . SVG Version: 6.00 Build 0)  -->
<svg version="1.1" id="图层_1" xmlns="http://www.w3.org/2000/svg" xmlns:xlink="http://www.w3.org/1999/xlink" x="0px" y="0px"
	 viewBox="0 0 42 42" style="enable-background:new 0 0 42 42;" xml:space="preserve">
<style type="text/css">
	.st0{fill:#5B8BFF;}
</style>
<path class="st0" d="M9,25.6V32h24v-6.4H9z M20.6,30h-8.7v-2.4h8.7V30z M25,30c-0.7,0-1.3-0.5-1.3-1.2c0-0.7,0.6-1.2,1.3-1.2
	c0.7,0,1.3,0.5,1.3,1.2C26.3,29.4,25.7,30,25,30z M28.4,30c-0.7,0-1.3-0.5-1.3-1.2c0-0.7,0.6-1.2,1.3-1.2s1.3,0.5,1.3,1.2
	C29.7,29.4,29.1,30,28.4,30z"/>
<path class="st0" d="M33,9H9v15.9h24L33,9L33,9z M30.6,21c0,0.1-0.1,0.2-0.2,0.2h-2.6c-0.3,0.6-1,1-1.7,1c-0.7,0-1.4-0.4-1.7-1H11.5
	c-0.1,0-0.2-0.1-0.2-0.2v-1.4c0-0.1,0.1-0.2,0.2-0.2h12.9c0.3-0.6,1-1.1,1.7-1.1c0.8,0,1.4,0.4,1.7,1.1h2.6c0.1,0,0.2,0.1,0.2,0.2
	V21z M30.6,15.8c0,0.1-0.1,0.2-0.2,0.2H17.9c-0.3,0.5-0.9,0.8-1.6,0.8c-0.7,0-1.2-0.3-1.6-0.8h-3.2c-0.1,0-0.2-0.1-0.2-0.2v-1.4
	c0-0.1,0.1-0.2,0.2-0.2h3c0.3-0.7,1-1.3,1.8-1.3c0.8,0,1.5,0.5,1.8,1.3h12.3c0.1,0,0.2,0.1,0.2,0.2V15.8z"/>
</svg>
