<?xml version="1.0" encoding="utf-8"?>
<!-- Generator: Adobe Illustrator 22.1.0, SVG Export Plug-In . SVG Version: 6.00 Build 0)  -->
<svg version="1.1" id="图层_1" xmlns="http://www.w3.org/2000/svg" xmlns:xlink="http://www.w3.org/1999/xlink" x="0px" y="0px"
	 viewBox="0 0 42 42" style="enable-background:new 0 0 42 42;" xml:space="preserve">
<style type="text/css">
	.st0{fill:#5B8BFF;}
</style>
<g>
	<path class="st0" d="M15.7,15.5c0,1.5-1.4,6.3,4.3,6.9c2.5,0.6,3.1,1.8,2.9,5.8v0.9l-1.8,0.9c0-0.6,0.6-4.9-0.6-5.8
		c-1.2-1.1-2.2-1.2-3.4-1.4c-0.5,0-1.4-0.6-2.2-1.1c-0.6-0.5-1.1-1.2-1.2-2.2c-0.2-0.6-0.2-1.4,0-2.5C14.1,16.7,14.8,16.1,15.7,15.5
		L15.7,15.5z M18,14c0,0.6-0.8,5.4,1.4,6.5c0.8,0.5,1.2,0.6,1.7,0.8c0.8,0.2,2.2,0.3,2.8,1.1c0.3,0.3,0.6,0.8,0.9,1.2
		c0.3,0.9,0.5,2,0.5,3.4v0.9c-0.6,0.5-1.2,0.9-1.7,1.1c0-0.6,0.2-3.7-0.3-4.9c-0.8-1.2-1.4-1.7-2.3-1.8c-0.9-0.2-2.6-0.6-3.2-1.2
		c-0.6-0.6-1.5-1.4-1.5-2.9v-2.8C16.9,14.6,17.5,14.3,18,14z M20.3,12.9c0,1.1-0.2,3.7,0.3,5.1c0.5,1.2,1.5,2,2.6,2.3
		c1.1,0.2,3.1,0.9,3.5,2.2s0.5,1.8,0.5,2.5V26c-0.6,0.6-1.2,1.1-1.7,1.4c0-1.8,0-3.4-0.5-4.5c-0.5-0.9-1.1-1.5-2.5-2
		c-1.2-0.3-2.6-0.5-3.5-1.7c-0.5-0.8-0.8-2-0.6-3.8l0.2-1.5C19.2,13.4,19.8,13.1,20.3,12.9L20.3,12.9z"/>
	<path class="st0" d="M12.8,17.8c0,1.2,0.2,2,0.3,2.3c0.3,1.1,1.2,2,1.5,2.2c0.6,0.5,1.8,1.1,2.8,1.2c0.6,0,1.2,0.3,2,0.6
		c0.6,0.5,1.1,0.9,1.1,1.4c0.2,2.9-0.3,4-0.5,4.9C17.8,31.8,9.2,32,9.1,26.6C8.9,23.2,10.1,20.3,12.8,17.8 M32.1,14
		c1.8,2.9,0.9,6.6-3.1,11.2c0-0.3,0-0.6-0.2-1.1c-0.5-2.3-1.4-3.2-2.5-3.7c-0.9-0.5-4-0.5-4.6-2.8c-0.3-1.7-0.3-3.5,0.2-5.2
		C26.8,11.1,30.3,11.5,32.1,14"/>
</g>
</svg>
