<?xml version="1.0" encoding="utf-8"?>
<!-- Generator: Adobe Illustrator 22.1.0, SVG Export Plug-In . SVG Version: 6.00 Build 0)  -->
<svg version="1.1" id="图层_1" xmlns="http://www.w3.org/2000/svg" xmlns:xlink="http://www.w3.org/1999/xlink" x="0px" y="0px"
	 viewBox="0 0 42 42" style="enable-background:new 0 0 42 42;" xml:space="preserve">
<style type="text/css">
	.st0{fill:#5B8BFF;}
</style>
<g>
	<path class="st0" d="M31.6,17.8c-0.4-0.4-1-0.7-1.6-0.6H11.9c-0.6-0.1-1.2,0.2-1.6,0.6c-0.3,0.4-0.5,0.9-0.5,1.4v3.7
		c0,0.5,0.2,1,0.6,1.4c0.4,0.4,0.9,0.6,1.5,0.6h18.2c0.6,0.1,1.1-0.2,1.5-0.6c0.3-0.4,0.5-0.9,0.5-1.4v-3.7
		C32.1,18.7,31.9,18.2,31.6,17.8z M23.5,21.9h-5.1c-0.3,0-0.6-0.1-0.9-0.2c-0.3-0.2-0.4-0.5-0.4-0.7c0-0.2,0.1-0.4,0.4-0.6
		c0.2-0.2,0.6-0.3,0.9-0.3h5.1c0.3,0,0.6,0.1,0.9,0.2c0.2,0.2,0.4,0.4,0.3,0.7C24.7,21.6,24.3,21.9,23.5,21.9z"/>
	<path class="st0" d="M31.7,25.9c-0.4-0.4-1-0.7-1.6-0.6H12c-0.6-0.1-1.2,0.2-1.6,0.6c-0.3,0.4-0.5,0.9-0.5,1.4V31
		c0,0.5,0.2,1,0.5,1.4c0.4,0.4,0.9,0.6,1.5,0.6h18.2c0.6,0.1,1.1-0.2,1.5-0.6c0.3-0.4,0.5-0.9,0.5-1.4v-3.7
		C32.2,26.8,32.1,26.3,31.7,25.9z M23.6,30.1h-5.1c-0.3,0-0.6-0.1-0.9-0.2c-0.3-0.2-0.4-0.5-0.4-0.7c0-0.2,0.1-0.4,0.4-0.6
		c0.2-0.2,0.6-0.3,0.9-0.3h5.1c0.3,0,0.6,0.1,0.9,0.2c0.2,0.2,0.4,0.4,0.3,0.7C24.8,29.8,24.4,30.1,23.6,30.1z"/>
	<path class="st0" d="M31.7,9.6c-0.4-0.4-1-0.7-1.6-0.6H12c-0.6-0.1-1.2,0.2-1.6,0.6C10.1,10,9.9,10.5,9.9,11v3.7
		c0,0.5,0.2,1,0.6,1.4c0.4,0.4,0.9,0.6,1.5,0.6h18.2c0.6,0.1,1.1-0.2,1.5-0.6c0.3-0.4,0.5-0.9,0.5-1.4V11
		C32.2,10.5,32.1,10,31.7,9.6z M23.6,13.7h-5.1c-0.3,0-0.6-0.1-0.9-0.2c-0.3-0.2-0.4-0.5-0.4-0.7c0-0.2,0.1-0.4,0.4-0.6
		c0.2-0.2,0.6-0.3,0.9-0.3h5.1c0.3,0,0.6,0.1,0.9,0.2c0.2,0.2,0.4,0.4,0.3,0.7C24.8,13.4,24.4,13.7,23.6,13.7z"/>
</g>
</svg>
