<?xml version="1.0" encoding="utf-8"?>
<!-- Generator: Adobe Illustrator 22.1.0, SVG Export Plug-In . SVG Version: 6.00 Build 0)  -->
<svg version="1.1" id="图层_1" xmlns="http://www.w3.org/2000/svg" xmlns:xlink="http://www.w3.org/1999/xlink" x="0px" y="0px"
	 viewBox="0 0 42 42" style="enable-background:new 0 0 42 42;" xml:space="preserve">
<style type="text/css">
	.st0{fill:#5B8BFF;}
</style>
<g>
	<path class="st0" d="M31.2,14.9h-4v-2.5c0-0.7-0.6-1.3-1.3-1.3h-9.8c-0.7,0-1.3,0.6-1.3,1.3v2.5h-4c-1,0-1.8,0.8-1.8,1.8V22h4
		l0-0.8c0-0.7,0.5-1.3,1.1-1.4c0.8-0.1,1.5,0.5,1.5,1.3V22h11.1l0-0.8c0-0.7,0.5-1.3,1.1-1.4c0.8-0.1,1.5,0.5,1.5,1.3V22H33v-5.3
		C33,15.7,32.2,14.9,31.2,14.9L31.2,14.9z M24.1,15h-6.3c-0.8,0-1.4-0.7-1.3-1.5c0.1-0.7,0.7-1.1,1.4-1.1h6.2c0.7,0,1.3,0.6,1.3,1.3
		C25.4,14.4,24.8,15,24.1,15z M29.4,24.2c0,0.7-0.5,1.3-1.1,1.4c-0.8,0.1-1.5-0.5-1.5-1.3V24H15.7v0.2c0,0.7-0.5,1.3-1.1,1.4
		C13.7,25.7,13,25,13,24.2V24H9v5.6c0,1,0.8,1.8,1.8,1.8h20.4c1,0,1.8-0.8,1.8-1.8V24h-3.6V24.2z"/>
</g>
</svg>
