<?xml version="1.0" encoding="utf-8"?>
<!-- Generator: Adobe Illustrator 22.1.0, SVG Export Plug-In . SVG Version: 6.00 Build 0)  -->
<svg version="1.1" id="图层_1" xmlns="http://www.w3.org/2000/svg" xmlns:xlink="http://www.w3.org/1999/xlink" x="0px" y="0px"
	 viewBox="0 0 42 42" style="enable-background:new 0 0 42 42;" xml:space="preserve">
<style type="text/css">
	.st0{fill:#5B8BFF;}
</style>
<g>
	<path class="st0" d="M31.4,11.6H10.6c-0.9,0-1.6,0.7-1.6,1.6v11.2c0,0.4,0.1,0.8,0.5,1.1c0.2,0.2,0.7,0.5,1.1,0.5h20.9
		c0.4,0,0.8-0.1,1.1-0.5c0.2-0.2,0.5-0.7,0.5-1.1V13.2C33,12.3,32.3,11.6,31.4,11.6z M30.6,23.5c0,0.2-0.1,0.4-0.2,0.6
		c-0.1,0.1-0.4,0.2-0.6,0.2h-4v-0.7c0-0.5,0.4-0.8,0.8-0.8h3.2C30.2,22.6,30.6,23,30.6,23.5L30.6,23.5z M31.3,20c0,0.6-0.5,1-1,1
		H10.7v-0.5c0-0.2,0.1-0.5,0.2-0.7s0.4-0.4,0.7-0.4h19.8V20H31.3z M13,27.5c0.5,0,0.8,0.2,0.8,0.8v3.2c0,0.5-0.2,0.8-0.8,0.8
		c-0.5,0-0.8-0.2-0.8-0.8v-3.2C12.2,27.7,12.5,27.5,13,27.5L13,27.5z M16.2,27.5c0.5,0,0.8,0.2,0.8,0.8v3.2c0,0.5-0.2,0.8-0.8,0.8
		c-0.5,0-0.8-0.2-0.8-0.8v-3.2C15.4,27.7,15.7,27.5,16.2,27.5L16.2,27.5z M19.4,27.5c0.5,0,0.8,0.2,0.8,0.8v3.2
		c0,0.5-0.2,0.8-0.8,0.8c-0.5,0-0.8-0.2-0.8-0.8v-3.2C18.6,27.7,18.8,27.5,19.4,27.5L19.4,27.5z M22.6,27.5c0.5,0,0.8,0.2,0.8,0.8
		v3.2c0,0.5-0.2,0.8-0.8,0.8c-0.5,0-0.8-0.2-0.8-0.8v-3.2C21.8,27.7,22.1,27.5,22.6,27.5L22.6,27.5z M25.8,27.5
		c-0.2,0-0.4,0.1-0.6,0.2c-0.1,0.1-0.2,0.4-0.2,0.6v3.2c0,0.2,0.1,0.6,0.4,0.7c0.2,0.1,0.6,0.1,0.8,0c0.2-0.1,0.4-0.4,0.4-0.7v-3.2
		c0-0.2-0.1-0.4-0.2-0.6C26.2,27.6,26,27.5,25.8,27.5L25.8,27.5z M28.9,27.5c-0.2,0-0.4,0.1-0.6,0.2c-0.1,0.1-0.2,0.4-0.2,0.6v3.2
		c0,0.5,0.4,0.8,0.8,0.8c0.5,0,0.8-0.4,0.8-0.8v-3.2c0-0.2-0.1-0.4-0.2-0.6C29.4,27.6,29.2,27.5,28.9,27.5L28.9,27.5z"/>
</g>
</svg>
