<?xml version="1.0" encoding="utf-8"?>
<!-- Generator: Adobe Illustrator 22.1.0, SVG Export Plug-In . SVG Version: 6.00 Build 0)  -->
<svg version="1.1" id="图层_1" xmlns="http://www.w3.org/2000/svg" xmlns:xlink="http://www.w3.org/1999/xlink" x="0px" y="0px"
	 viewBox="0 0 42 42" style="enable-background:new 0 0 42 42;" xml:space="preserve">
<style type="text/css">
	.st0{fill:#5B8BFF;}
</style>
<g>
	<path class="st0" d="M32.7,17.9l-1.4,1.4c0.2,0.5,0.2,1.2,0.2,1.7c0,5.3-4.1,9.9-9.4,10.3c-5.4,0.5-10.4-3.1-11.2-8.4
		c-1-5.1,2.1-10.5,7.2-12s10.6,1,12.7,6.2l1-1.2c-1.9-4-6-6.9-10.8-6.9c-3.2,0-6.3,1.3-8.5,3.5S9,17.8,9,21s1.3,6.3,3.5,8.5
		c2.3,2.2,5.4,3.5,8.5,3.5s6.3-1.3,8.5-3.5c2.2-2.3,3.5-5.4,3.5-8.5C33,20,32.8,18.9,32.7,17.9L32.7,17.9z M29.9,17.9
		c-1.4-3.6-4.8-6.4-9-6.4c-5.2,0-9.5,4.3-9.5,9.5s4.3,9.5,9.5,9.5s9.5-4.3,9.5-9.5v-0.9l-7,7v-5.5l-6.2,6.2v-6.2h-2.7v-2h4.5V23
		l6.2-6.2v5.8L29.9,17.9L29.9,17.9z"/>
</g>
</svg>
