<?xml version="1.0" encoding="utf-8"?>
<!-- Generator: Adobe Illustrator 22.1.0, SVG Export Plug-In . SVG Version: 6.00 Build 0)  -->
<svg version="1.1" id="图层_1" xmlns="http://www.w3.org/2000/svg" xmlns:xlink="http://www.w3.org/1999/xlink" x="0px" y="0px"
	 viewBox="0 0 42 42" style="enable-background:new 0 0 42 42;" xml:space="preserve">
<style type="text/css">
	.st0{fill:#5B8BFF;}
</style>
<g>
	<path class="st0" d="M29,10.8l-15.9-0.1c-0.4,0-0.7,0.2-0.8,0.6L9,22.3v8.3c0,0.5,0.4,0.9,0.9,0.9h22.3c0.5,0,0.9-0.4,0.9-0.9v-8.3
		l-3.2-10.9C29.7,11,29.4,10.8,29,10.8L29,10.8z M33,23.7H9v-1.3h24V23.7L33,23.7z M21.8,26h2.7v2.7h-2.7L21.8,26L21.8,26z M26.5,26
		h2.7v2.7h-2.7V26z M18.9,20.4h-2.6c-0.4,0-0.5-0.4-0.5-0.8c0-0.4,0.1-0.7,0.5-0.7h2.1l1-1.5l1,1l-1,1.5
		C19.3,20.1,19.1,20.4,18.9,20.4L18.9,20.4L18.9,20.4z M25.6,18.9c0.4,0,0.5,0.5,0.5,0.8c0,0.4-0.3,0.7-0.7,0.7h-3
		c-0.2,0-0.4-0.3-0.5-0.5l-3.1-4.5h-2v1l-2-1.5l2-2v1h2c0.2,0,0.4,0,0.5,0l3.5,5L25.6,18.9L25.6,18.9z M25,13.9v-1l2.1,2l-2,1.5v-1
		H23l-1,1l-1-1l1.3-1.2c0.1-0.2,0.6-0.4,0.8-0.4L25,13.9L25,13.9z"/>
</g>
</svg>
