<?xml version="1.0" encoding="utf-8"?>
<!-- Generator: Adobe Illustrator 22.1.0, SVG Export Plug-In . SVG Version: 6.00 Build 0)  -->
<svg version="1.1" id="图层_1" xmlns="http://www.w3.org/2000/svg" xmlns:xlink="http://www.w3.org/1999/xlink" x="0px" y="0px"
	 viewBox="0 0 42 42" style="enable-background:new 0 0 42 42;" xml:space="preserve">
<style type="text/css">
	.st0{fill:#5B8BFF;}
	.st1{font-family:'MicrosoftYaHei';}
	.st2{font-size:9.8795px;}
</style>
<g>
	<path class="st0" d="M20.1,10.5c-6,0-10.8,1.5-10.8,3.4v2.7c0,1.9,4.8,3.4,10.8,3.4c6,0,10.8-1.5,10.8-3.4v-2.7
		C30.9,12,26,10.5,20.1,10.5z"/>
	<path class="st0" d="M20.9,29c0.5,0,1.1-0.1,1.5-1c-0.6,0-1.3,0.1-1.9,0.1c-0.2,0.6-0.1,0.8-0.1,0.8C20.4,28.9,20.5,29,20.9,29
		C20.8,29,20.8,29,20.9,29z"/>
	<path class="st0" d="M25.1,27.9c-0.2,0.5-0.4,0.9-0.6,1.3l1.8-1.8c-0.4,0.1-0.7,0.2-1.1,0.2L25.1,27.9z"/>
	<path class="st0" d="M25.9,31.4l-3.6,0l0.4-0.4c-0.6,0.3-1.4,0.5-2.2,0.5c0,0,0,0,0,0c-1.2,0-2-0.3-2.5-1c-0.4-0.6-0.5-1.5-0.3-2.5
		c-4.9-0.3-8.5-1.7-8.5-3.3v4.1c0,1.9,4.8,3.4,10.8,3.4c3.4,0,6.5-0.5,8.5-1.3L28,29.2L25.9,31.4z"/>
	<path class="st0" d="M20.1,22c-6,0-10.8-1.5-10.8-3.4v4.1c0,1.7,3.9,3.1,9.1,3.3l1.1-3.5l2.7,0L21,26.1c0.7,0,1.3-0.1,2-0.1
		l1.1-3.4l1.6,0l0,0l3,0l0.5,1.9c0.2-0.1,0.3-0.2,0.5-0.3l1.1-1.2c0-0.1,0.1-0.2,0.1-0.4v-4.1C30.9,20.5,26,22,20.1,22z"/>
	<path class="st0" d="M26.3,24.3l-0.4,1.2c0.2,0,0.5-0.1,0.7-0.2L26.3,24.3z"/>
</g>
<text transform="matrix(1 2.090021e-03 -0.3017 0.9534 16.9574 30.5181)" class="st0 st1 st2">UX</text>
</svg>
