<?xml version="1.0" encoding="utf-8"?>
<!-- Generator: Adobe Illustrator 22.1.0, SVG Export Plug-In . SVG Version: 6.00 Build 0)  -->
<svg version="1.1" id="图层_1" xmlns="http://www.w3.org/2000/svg" xmlns:xlink="http://www.w3.org/1999/xlink" x="0px" y="0px"
	 viewBox="0 0 42 42" style="enable-background:new 0 0 42 42;" xml:space="preserve">
<style type="text/css">
	.st0{fill:#5B8BFF;}
</style>
<g>
	<path class="st0" d="M20.9,32.9h-0.4l2.4-6.7h3.3c0.6,0,1.2-0.4,1.4-1l2.6-7.2c0.4-1.2-0.2-2.2-1.5-2.2h-4.7l-6.1,16.8
		C12.9,31.3,9,26.6,9,21c0-5.4,3.7-10,8.7-11.4l-6.1,16.6h2.5l3.2-8.8h1.9L16,26.2h2.6l3-8.3c0.4-1.2-0.2-2.2-1.5-2.2h-2.1L20.4,9
		c0.2,0,0.4,0,0.5,0c6.6,0,12,5.4,12,12S27.5,33,20.9,32.9L20.9,32.9z M28.1,17.3h-1.9l-2.7,7.3h1.9L28.1,17.3z"/>
</g>
</svg>
