<?xml version="1.0" encoding="utf-8"?>
<!-- Generator: Adobe Illustrator 22.1.0, SVG Export Plug-In . SVG Version: 6.00 Build 0)  -->
<svg version="1.1" id="图层_1" xmlns="http://www.w3.org/2000/svg" xmlns:xlink="http://www.w3.org/1999/xlink" x="0px" y="0px"
	 viewBox="0 0 42 42" style="enable-background:new 0 0 42 42;" xml:space="preserve">
<style type="text/css">
	.st0{fill:#5B8BFF;}
</style>
<g>
	<path class="st0" d="M20,20.6c5.5,0,10-1.4,10-3.1V15c0-1.7-4.5-3.1-10-3.1S10,13.2,10,15v2.5C10,19.2,14.5,20.6,20,20.6L20,20.6z"
		/>
	<path class="st0" d="M30.3,26.5H30v1.8h1.4l0.2-0.3h-1.3V26.5z M26.4,26.5l-1.1,1.7h0.4l0.3-0.5h0.7l0.2-0.3h-0.7l0.4-0.6l0.9,1.4
		h0.4l-1.1-1.7C26.7,26.4,26.5,26.4,26.4,26.5L26.4,26.5z M28.4,26.8h1.3l0.2-0.3h-1.5c-0.5,0-0.8,0.4-0.8,0.9
		c0,0.5,0.3,0.9,0.8,0.9h1.2l0.2-0.3h-1.4c-0.3,0-0.5-0.3-0.5-0.6C27.9,27.1,28.1,26.8,28.4,26.8L28.4,26.8z M22.2,28h-1.3
		c-0.3,0-0.5-0.3-0.5-0.6c0-0.3,0.2-0.6,0.5-0.6h1.3c0.3,0,0.5,0.3,0.5,0.6C22.7,27.7,22.5,28,22.2,28z M22.2,26.5h-1.3
		c-0.5,0-0.8,0.4-0.8,0.9c0,0.5,0.3,0.9,0.8,0.9h1.3c0.5,0,0.8-0.4,0.8-0.9C23,26.9,22.7,26.5,22.2,26.5z M32.6,26.8h1.3l0.2-0.3
		h-1.5c-0.5,0-0.8,0.4-0.8,0.9c0,0.5,0.3,0.9,0.8,0.9h1.2L34,28h-1.4c-0.3,0-0.5-0.2-0.5-0.5h1.6l0.2-0.3H32
		C32.1,27,32.3,26.8,32.6,26.8z M24.6,27.5c0.3,0,0.5-0.2,0.5-0.5c0-0.3-0.2-0.5-0.5-0.5c0,0,0,0,0,0h-1.5v1.8h0.3v-1.5h1.2
		c0.1,0,0.2,0.1,0.2,0.2c0,0.1-0.1,0.2-0.2,0.2h-1l1.1,1h0.4l-0.8-0.7L24.6,27.5z M21.8,25.8c0.4-0.9,1.2-1.6,2.3-1.6h6.1
		c1.1,0,1.9,0.6,2.3,1.6h1.5c-0.5-1.7-1.8-3-3.8-3h-6.1c-1.9,0-3.3,1.2-3.8,3H21.8L21.8,25.8z M32.5,28.7c-0.4,0.9-1.2,1.6-2.3,1.6
		h-6.1c-1.1,0-1.9-0.6-2.3-1.6h-1.5c0.5,1.7,1.8,3,3.8,3h6.1c1.9,0,3.3-1.2,3.8-3H32.5z"/>
	<g>
		<path class="st0" d="M23,22.3l7-0.2v-2.8c0,1.7-4.5,3.1-10,3.1c-5.5,0-10-1.4-10-3.1v3.7c0,1.7,4.1,3,9.4,3.1
			C19.8,24.6,20.9,22.8,23,22.3z"/>
	</g>
	<path class="st0" d="M19.3,28.1c-5.2-0.1-9.3-1.5-9.3-3.1v3.7c0,1.7,4.5,3.1,10,3.1c0.5,0,1,0,1.5,0C20.3,30.8,19.3,29.5,19.3,28.1
		z"/>
</g>
</svg>
