<?xml version="1.0" encoding="utf-8"?>
<!-- Generator: Adobe Illustrator 22.1.0, SVG Export Plug-In . SVG Version: 6.00 Build 0)  -->
<svg version="1.1" id="图层_1" xmlns="http://www.w3.org/2000/svg" xmlns:xlink="http://www.w3.org/1999/xlink" x="0px" y="0px"
	 viewBox="0 0 42 42" style="enable-background:new 0 0 42 42;" xml:space="preserve">
<style type="text/css">
	.st0{fill:#5B8BFF;}
</style>
<g>
	<path class="st0" d="M10,26.3V33h23v-6.7H10z M21.2,30.9h-8.4v-2.6h8.4V30.9z M25.3,30.9c-0.7,0-1.2-0.6-1.2-1.3s0.6-1.3,1.2-1.3
		s1.2,0.6,1.2,1.3S26,30.9,25.3,30.9z M28.6,30.9c-0.7,0-1.2-0.6-1.2-1.3s0.6-1.3,1.2-1.3s1.2,0.6,1.2,1.3S29.3,30.9,28.6,30.9z
		 M33,9H10v16.6h23L33,9L33,9z M27.4,21.9v1.7c-2.8,0-5.2-1.4-6.4-3.3c-1.2,1.9-3.6,3.1-6.3,3.1v-1.7c3,0,5.5-1.9,5.5-4.2
		c0-1.9-1.7-3.5-3.9-4l-0.3,1l-1.2-1.2h-0.1v-0.1l-1.6-1.7l3.9-1.1l-0.3,1.3c2,0.5,3.6,1.6,4.5,3.1c0.9-1.3,2.3-2.4,4.1-2.8L25,10.9
		l3.9,1.1L26,14.9l-0.3-1.2c-2.2,0.6-3.7,2.1-3.7,4C22,20,24.4,21.9,27.4,21.9z"/>
</g>
</svg>
