<?xml version="1.0" encoding="utf-8"?>
<!-- Generator: Adobe Illustrator 22.1.0, SVG Export Plug-In . SVG Version: 6.00 Build 0)  -->
<svg version="1.1" id="图层_1" xmlns="http://www.w3.org/2000/svg" xmlns:xlink="http://www.w3.org/1999/xlink" x="0px" y="0px"
	 viewBox="0 0 42 42" style="enable-background:new 0 0 42 42;" xml:space="preserve">
<style type="text/css">
	.st0{fill:#5B8BFF;}
</style>
<path class="st0" d="M9,26.6v6.5h24v-6.5H9z M20.7,31H12v-2.5h8.7V31z M25,31c-0.7,0-1.3-0.5-1.3-1.2c0-0.7,0.6-1.2,1.3-1.2
	c0.7,0,1.3,0.5,1.3,1.2C26.3,30.5,25.7,31,25,31z M28.4,31c-0.7,0-1.3-0.5-1.3-1.2c0-0.7,0.6-1.2,1.3-1.2s1.3,0.5,1.3,1.2
	C29.7,30.5,29.2,31,28.4,31z"/>
<g>
	<path class="st0" d="M21.2,16.4c-0.4,0-0.7-0.1-1-0.2l-1.9,3c0.5,0.3,1,0.8,1.2,1.4H23c0.2-0.6,0.6-1,1.1-1.3l-1.9-3
		C21.9,16.3,21.5,16.4,21.2,16.4z"/>
	<path class="st0" d="M33,9.9H9v16.1h24L33,9.9L33,9.9z M25.5,23.8c-1.4,0.1-2.6-1-2.6-2.5h-3.3c0,1.4-1.2,2.6-2.6,2.5
		c-1.2-0.1-2.2-1.1-2.3-2.3c-0.1-1.4,1-2.6,2.5-2.6c0.1,0,0.2,0,0.3,0l2.1-3.2c-0.5-0.4-0.7-1.1-0.7-1.8c0-1.4,1.2-2.6,2.6-2.5
		c1.2,0.1,2.2,1.1,2.3,2.3c0.1,0.8-0.3,1.5-0.8,2l2,3.2c0.1,0,0.3,0,0.4,0c1.4,0,2.6,1.2,2.5,2.6C27.7,22.7,26.7,23.7,25.5,23.8z"/>
</g>
</svg>
