<?xml version="1.0" encoding="utf-8"?>
<!-- Generator: Adobe Illustrator 22.1.0, SVG Export Plug-In . SVG Version: 6.00 Build 0)  -->
<svg version="1.1" id="图层_1" xmlns="http://www.w3.org/2000/svg" xmlns:xlink="http://www.w3.org/1999/xlink" x="0px" y="0px"
	 viewBox="0 0 42 42" style="enable-background:new 0 0 42 42;" xml:space="preserve">
<style type="text/css">
	.st0{fill:#5B8BFF;}
</style>
<g>
	<path class="st0" d="M16.7,17.4v3.3h2.1l1.1-2l-2.7-1.6C17.2,17.3,17,17.4,16.7,17.4z"/>
	<path class="st0" d="M23.9,28.6v-3.2h-2.2l-1,1.8l2.8,1.6C23.6,28.6,23.8,28.6,23.9,28.6z"/>
	<path class="st0" d="M20.1,18.6l1-1.7l-1-1.7l-2.7,1.6c0,0,0,0.1,0,0.1c0,0.1,0,0.1,0,0.2L20.1,18.6z"/>
	<path class="st0" d="M20.6,19.1L19.6,21l1.1,1.8l2.7-1.6c0-0.1,0-0.1,0-0.2c0-0.1,0-0.2,0.1-0.2L20.6,19.1z"/>
	<path class="st0" d="M20.1,26.8l1.1-1.8l-1-1.7l-2.9,1.6c0,0.1,0,0.1,0,0.2c0,0,0,0.1,0,0.1L20.1,26.8z"/>
	<path class="st0" d="M20.1,23.1L19,21.2h-2.3v3.3c0.2,0,0.4,0.1,0.5,0.3L20.1,23.1z"/>
	<path class="st0" d="M23.4,12.9C23.4,12.9,23.4,12.9,23.4,12.9c0-0.5,0.3-0.7,0.7-0.7s0.7,0.3,0.7,0.7c0,0.4-0.3,0.7-0.6,0.7v3.1
		h2.1l2.2-3.8L26,9h-4.3l-2.2,3.8l1,1.7L23.4,12.9z"/>
	<path class="st0" d="M24.1,25.3v3.2c0.4,0,0.6,0.3,0.6,0.7c0,0.4-0.3,0.7-0.7,0.7s-0.7-0.3-0.7-0.7c0-0.1,0-0.2,0.1-0.3l-2.8-1.6
		l-1,1.8l2.3,3.9v-0.1H26l2.2-3.8L26,25.3H24.1z"/>
	<path class="st0" d="M24.1,17.2v3.1c0.4,0,0.6,0.3,0.6,0.7s-0.3,0.7-0.6,0.7v3.1h2.1l2.2-3.8L26,17.2H24.1z"/>
	<path class="st0" d="M17.3,25.5c-0.1,0.2-0.3,0.4-0.6,0.4c-0.4,0-0.7-0.3-0.7-0.7c0-0.4,0.3-0.6,0.6-0.7v-3.3h-2.1L12.4,25l2.2,3.8
		H19l1-1.8L17.3,25.5z"/>
	<path class="st0" d="M23.5,21.4L20.8,23l1.1,1.8h2.1v-3.1C23.8,21.6,23.6,21.5,23.5,21.4z"/>
	<path class="st0" d="M21.7,17.2l-1,1.8l2.8,1.6c0.1-0.1,0.2-0.2,0.4-0.3v-3.1H21.7z"/>
	<path class="st0" d="M16.6,20.7v-3.3c-0.3,0-0.6-0.3-0.6-0.7c0-0.4,0.4-0.7,0.7-0.7v0c0.2,0,0.4,0.1,0.6,0.3l2.6-1.5l-1-1.8h-4.3
		l-2.2,3.8l2.2,3.9H16.6z"/>
	<path class="st0" d="M23.4,13.1l-2.7,1.6l1.2,1.9h2.1v-3.1C23.7,13.5,23.5,13.3,23.4,13.1z"/>
</g>
</svg>
