<?xml version="1.0" encoding="utf-8"?>
<!-- Generator: Adobe Illustrator 22.1.0, SVG Export Plug-In . SVG Version: 6.00 Build 0)  -->
<svg version="1.1" id="图层_1" xmlns="http://www.w3.org/2000/svg" xmlns:xlink="http://www.w3.org/1999/xlink" x="0px" y="0px"
	 viewBox="0 0 42 42" style="enable-background:new 0 0 42 42;" xml:space="preserve">
<style type="text/css">
	.st0{fill:#5B8BFF;}
</style>
<g>
	<path class="st0" d="M21.1,32.9c-6.6,0-12-5.4-12-12s5.4-12,12-12s12,5.4,12,12S27.7,32.9,21.1,32.9z M16.7,17.3h-6.2V19l2.2,0v5.4
		h2V19l2,0V17.3L16.7,17.3z M23.9,17.3h-2.2v4.2c0.1,0.7-0.5,1.3-1.2,1.2c-0.2,0-0.4-0.1-0.5-0.2c-0.3-0.3-0.5-0.7-0.4-1v-4.2h-2
		v4.2c0,0.7,0.2,1.4,0.7,1.9c0.5,0.6,1,0.9,2.7,0.9c1,0.1,2.1-0.3,2.6-1.2c0.3-0.5,0.4-1,0.4-1.6L23.9,17.3L23.9,17.3z M29.3,17.3
		l-1.2,2.2L27,17.3h-2.2l2.1,3.4l-2.3,3.6h2.3l1.3-2.3l1.3,2.3h2.2l-2.2-3.6l2.1-3.4H29.3L29.3,17.3z"/>
</g>
</svg>
