<?xml version="1.0" encoding="utf-8"?>
<!-- Generator: Adobe Illustrator 22.1.0, SVG Export Plug-In . SVG Version: 6.00 Build 0)  -->
<svg version="1.1" id="图层_1" xmlns="http://www.w3.org/2000/svg" xmlns:xlink="http://www.w3.org/1999/xlink" x="0px" y="0px"
	 viewBox="0 0 42 42" style="enable-background:new 0 0 42 42;" xml:space="preserve">
<style type="text/css">
	.st0{fill:#5B8BFF;}
</style>
<g>
	<path class="st0" d="M20.4,21.3v-1.7c0-0.4,0.2-0.7,0.6-0.8c0.6-0.2,1.1,0.2,1.1,0.8v1.7c0,0.6-0.5,1-1.1,0.8
		C20.6,22,20.4,21.7,20.4,21.3z M13.5,22.3v-1c0-0.4,0.3-0.8,0.8-0.8c0.4,0,0.8,0.3,0.8,0.8v1c0,0.4-0.4,0.8-0.8,0.8
		C13.8,23.1,13.5,22.8,13.5,22.3z M27,22.4v-1.1c0-0.4,0.2-0.7,0.6-0.8c0.6-0.2,1.1,0.2,1.1,0.8v1.1c0,0.6-0.5,1-1.1,0.8
		C27.2,23.1,27,22.8,27,22.4z"/>
	<path class="st0" d="M27.9,22.1H14.3c-0.4,0-0.7-0.2-0.8-0.6c-0.2-0.6,0.2-1.1,0.8-1.1h13.6c0.4,0,0.7,0.2,0.8,0.6
		C28.8,21.6,28.4,22.1,27.9,22.1z M24.3,9h-6.5c-1.2,0-2.2,1-2.2,2.2v3.8c0,1.2,1,2.2,2.2,2.2h6.5c1.2,0,2.2-1,2.2-2.2v-3.8
		C26.4,10,25.5,9,24.3,9z M24.1,12.3h-1.7c-0.4,0-0.7-0.2-0.8-0.6c-0.2-0.6,0.2-1.1,0.8-1.1h1.7c0.4,0,0.7,0.2,0.8,0.6
		C25.1,11.7,24.7,12.3,24.1,12.3z M17.7,24.9h-6.5c-1.2,0-2.2,1-2.2,2.2v3.8C9,32,10,33,11.2,33h6.5c1.2,0,2.2-1,2.2-2.2v-3.8
		C19.9,25.9,18.9,24.9,17.7,24.9z M17.5,28.1h-1.7c-0.4,0-0.7-0.2-0.8-0.6c-0.2-0.6,0.2-1.1,0.8-1.1h1.7c0.4,0,0.7,0.2,0.8,0.6
		C18.5,27.6,18.1,28.1,17.5,28.1z M30.8,24.9h-6.5c-1.2,0-2.2,1-2.2,2.2v3.8c0,1.2,1,2.2,2.2,2.2h6.5c1.2,0,2.2-1,2.2-2.2v-3.8
		C33,25.9,32,24.9,30.8,24.9z M30.6,28.1h-1.7c-0.4,0-0.7-0.2-0.8-0.6c-0.2-0.6,0.2-1.1,0.8-1.1h1.7c0.4,0,0.7,0.2,0.8,0.6
		C31.6,27.6,31.2,28.1,30.6,28.1z"/>
</g>
</svg>
