<?xml version="1.0" encoding="utf-8"?>
<!-- Generator: Adobe Illustrator 22.1.0, SVG Export Plug-In . SVG Version: 6.00 Build 0)  -->
<svg version="1.1" id="图层_1" xmlns="http://www.w3.org/2000/svg" xmlns:xlink="http://www.w3.org/1999/xlink" x="0px" y="0px"
	 viewBox="0 0 42 42" style="enable-background:new 0 0 42 42;" xml:space="preserve">
<style type="text/css">
	.st0{fill:#5B8BFF;}
</style>
<g>
	<path class="st0" d="M31.4,18.9c0.5,0.1,0.8,0.4,1.2,0.9c0.3,0.5,0.5,1,0.5,1.5v7.3c0,0.7-0.3,1.3-0.8,1.9
		c-0.5,0.5-1.2,0.8-1.9,0.8H11.7c-0.7,0-1.3-0.3-1.9-0.8C9.3,29.9,9,29.3,9,28.6v-5.3c0-0.7,0.3-1.3,0.8-1.9
		c0.5-0.5,1.2-0.8,1.9-0.8h16.8L9.7,13.9l0.9-2.5L31.4,18.9z M14.2,27.4v-2.8h-2.6v2.8H14.2z M30.2,27.4v-2.8H17v2.8H30.2z"/>
</g>
</svg>
