<?xml version="1.0" encoding="utf-8"?>
<!-- Generator: Adobe Illustrator 22.1.0, SVG Export Plug-In . SVG Version: 6.00 Build 0)  -->
<svg version="1.1" id="图层_1" xmlns="http://www.w3.org/2000/svg" xmlns:xlink="http://www.w3.org/1999/xlink" x="0px" y="0px"
	 viewBox="0 0 42 42" style="enable-background:new 0 0 42 42;" xml:space="preserve">
<style type="text/css">
	.st0{fill:#5B8BFF;}
</style>
<g>
	<path class="st0" d="M22.8,18.6c0-1.1-0.9-1.9-2-1.8c-0.9,0.1-1.6,0.9-1.6,1.8l0,2.4h3.6V18.6z M27.6,9H14.4c-2,0-3.6,1.6-3.6,3.6
		l0,0v16.8c0,2,1.6,3.6,3.6,3.6h13.2c2,0,3.6-1.6,3.6-3.6l0,0V12.6C31.2,10.6,29.6,9,27.6,9L27.6,9z M26.4,25.8
		c0,0.7-0.5,1.2-1.2,1.2l0,0h-8.4c-0.7,0-1.2-0.5-1.2-1.2l0,0v-3.6c0-0.7,0.5-1.2,1.2-1.2l0,0H18v-2.4c0-2.4,2.8-4.1,5.3-2.1
		c0.5,0.4,0.7,1,0.7,1.6v3h1.2c0.7,0,1.2,0.5,1.2,1.2l0,0V25.8z M21,22.3c-1,0-1.8,0.8-1.8,1.8s0.8,1.8,1.8,1.8c1,0,1.8-0.8,1.8-1.8
		S22,22.3,21,22.3z"/>
</g>
</svg>
