<?xml version="1.0" encoding="utf-8"?>
<!-- Generator: Adobe Illustrator 22.1.0, SVG Export Plug-In . SVG Version: 6.00 Build 0)  -->
<svg version="1.1" id="图层_1" xmlns="http://www.w3.org/2000/svg" xmlns:xlink="http://www.w3.org/1999/xlink" x="0px" y="0px"
	 viewBox="0 0 42 42" style="enable-background:new 0 0 42 42;" xml:space="preserve">
<style type="text/css">
	.st0{fill:#5B8BFF;}
</style>
<g>
	<path class="st0" d="M26.1,28.6v2.6c0,0.4-0.3,0.8-0.8,0.8h-9c-0.4,0-0.8-0.3-0.8-0.8v-2.6c0-0.2,0.2-0.4,0.4-0.4h9.8
		C25.9,28.2,26.1,28.3,26.1,28.6z"/>
	<path class="st0" d="M29.9,18.4h-2.8c-0.1,0-0.2-0.1-0.2-0.2v-3.7c0-0.9-0.4-1.7-1-2.3l-1.1-1c-0.5-0.5-1.2-0.7-2-0.7h-7.9v7.7
		c0,0.1-0.1,0.2-0.2,0.2h-2.8c-1.7,0-3,1.3-3,3v9.8c0,0.4,0.3,0.8,0.8,0.8h4.5c0.4,0,0.8-0.3,0.8-0.8v-3.4c0-0.2,0.2-0.4,0.4-0.4
		h11.3c0.2,0,0.4,0.2,0.4,0.4v3.4c0,0.4,0.3,0.8,0.8,0.8h4.5c0.4,0,0.8-0.3,0.8-0.8v-9.8C32.9,19.8,31.5,18.4,29.9,18.4z M23.9,12.5
		l1.5,1.3v0.1H24c-0.1,0-0.1,0-0.1-0.1V12.5z M16.4,12.1h6v2.6c0,0.4,0.3,0.8,0.8,0.8h2.2v6h-9V12.1z M11.9,22.6
		c0-0.6,0.5-1.1,1.1-1.1s1.1,0.5,1.1,1.1s-0.5,1.1-1.1,1.1S11.9,23.2,11.9,22.6z"/>
	<path class="st0" d="M21.6,13.9h-4.5v1.5h4.5V13.9z M24.6,16.2h-7.5v1.5h7.5V16.2z M24.6,18.8h-7.5v1.5h7.5V18.8z"/>
</g>
</svg>
