<svg id="图层_1" data-name="图层 1" xmlns="http://www.w3.org/2000/svg" viewBox="0 0 42 42"><defs><style>.cls-1{fill:#5b8bff;}</style></defs><title>42</title><path class="cls-1" d="M20.62,29.07a2.65,2.65,0,1,0,2.71,2.65A2.68,2.68,0,0,0,20.62,29.07Z"/><path class="cls-1" d="M26.42,12.28a8.51,8.51,0,0,0-5.83-1.91A8.22,8.22,0,0,0,15,12.26a6.56,6.56,0,0,0-2.31,4.58c-.05,1.6,3.77,1.27,3.91.48a5.47,5.47,0,0,1,1.5-2.8,4.08,4.08,0,0,1,2.72-.91,3.88,3.88,0,0,1,2.68.88,2.73,2.73,0,0,1,1,2.11,2.68,2.68,0,0,1-.56,1.63,18.51,18.51,0,0,1-2.23,2,9.33,9.33,0,0,0-2.48,2.72A6.6,6.6,0,0,0,18.55,26c0,.13,0,.46,0,1h3.87a5.89,5.89,0,0,1,.3-2.42,6.17,6.17,0,0,1,1.67-1.8,17.24,17.24,0,0,0,3.4-3.4,4.8,4.8,0,0,0,.79-2.66A5.75,5.75,0,0,0,26.42,12.28Z"/></svg>