<?xml version="1.0" encoding="utf-8"?>
<!-- Generator: Adobe Illustrator 22.1.0, SVG Export Plug-In . SVG Version: 6.00 Build 0)  -->
<svg version="1.1" id="图层_1" xmlns="http://www.w3.org/2000/svg" xmlns:xlink="http://www.w3.org/1999/xlink" x="0px" y="0px"
	 viewBox="0 0 42 42" style="enable-background:new 0 0 42 42;" xml:space="preserve">
<style type="text/css">
	.st0{fill:#5B8BFF;}
</style>
<g>
	<path class="st0" d="M19.3,20.4c1.2,0,2.3-0.1,3.3-0.2c1.2-0.9,2.7-1.5,4.3-1.5c0.2,0,0.5,0,0.7,0.1c1.1-0.6,1.8-1.3,2-2.1h0v-1.5
		h0c0-0.1,0-0.2,0-0.3c0-2.2-4.6-4-10.4-4c-5.5,0-10,1.7-10.3,3.8v0.5c0,0,0,0,0,0.1h0v1.5h0C9.4,18.7,13.9,20.4,19.3,20.4z
		 M19.1,25.8c0.2,0,0.4,0,0.6,0c0-0.1,0-0.2,0-0.2c0-1.3,0.4-2.5,1-3.6c-0.5,0-1,0.1-1.6,0.1c-4.6,0-8.4-1.2-9.7-2.9
		C9.2,19.4,9.1,19.7,9,20v0.5c0,0,0,0,0,0.1h0V22h0C9.4,24.2,13.7,25.8,19.1,25.8z M19.3,31.5c1.2,0,2.3-0.1,3.4-0.3
		c-1.2-0.9-2.1-2.1-2.5-3.5c-0.3,0-0.6,0-0.9,0c-4.7,0-8.6-1.2-9.9-2.9c-0.2,0.3-0.4,0.6-0.4,0.9v0.5c0,0,0,0,0,0.1h0v1.5h0
		C9.4,29.8,13.9,31.5,19.3,31.5L19.3,31.5z"/>
	<path class="st0" d="M26.7,20.4c-2.9,0-5.3,2.4-5.3,5.3c0,2.9,2.4,5.3,5.3,5.3c2.9,0,5.3-2.4,5.3-5.3C32,22.7,29.6,20.4,26.7,20.4z
		 M23.9,25.5c0-0.1,0-0.2,0.1-0.3c0.1-0.1,0.2-0.1,0.3-0.1h2.3v-0.7h-0.5c-0.2,0-0.4-0.2-0.4-0.4V23c0-0.2,0.2-0.4,0.4-0.4h1.4
		c0.2,0,0.4,0.2,0.4,0.4V24c0,0.2-0.2,0.4-0.4,0.4h-0.5v0.7h2.3c0.2,0,0.4,0.2,0.4,0.4v0.6h-0.5v-0.5h-2.1v0.5h-0.6v-0.5l-2.1,0v0.5
		h-0.6V25.5z M25.1,28c0,0.2-0.2,0.4-0.4,0.4h-1.1c-0.1,0-0.2,0-0.2-0.1c-0.1-0.1-0.1-0.2-0.1-0.3v-1.1c0-0.1,0-0.2,0.1-0.2
		c0.1-0.1,0.2-0.1,0.2-0.1h1.1c0.2,0,0.4,0.2,0.4,0.4V28z M27.7,28c0,0.2-0.2,0.4-0.4,0.4h-1.1c-0.2,0-0.4-0.2-0.4-0.4v-1.1
		c0-0.2,0.2-0.4,0.4-0.4l1.1,0c0.2,0,0.4,0.2,0.4,0.4V28z M30.4,28c0,0.2-0.2,0.4-0.4,0.4H29c-0.2,0-0.4-0.2-0.4-0.4v-1.1
		c0-0.2,0.2-0.4,0.4-0.4l1.1,0c0.2,0,0.4,0.2,0.4,0.4V28z"/>
</g>
</svg>
