<?xml version="1.0" encoding="utf-8"?>
<!-- Generator: Adobe Illustrator 22.1.0, SVG Export Plug-In . SVG Version: 6.00 Build 0)  -->
<svg version="1.1" id="图层_1" xmlns="http://www.w3.org/2000/svg" xmlns:xlink="http://www.w3.org/1999/xlink" x="0px" y="0px"
	 viewBox="0 0 42 42" style="enable-background:new 0 0 42 42;" xml:space="preserve">
<style type="text/css">
	.st0{fill:#5B8BFF;}
</style>
<g>
	<path class="st0" d="M9,15.9v4.5h11.3v-4.5H9z M21.7,15.9v4.5H33v-4.5H21.7z M9,27.8v0.8c0.1,2.1,1.9,3.8,4,3.8h7.3v-4.5L9,27.8z
		 M21.7,27.8v4.5H29c2.1,0.1,3.9-1.6,4-3.8v-0.8H21.7z M9,21.9v4.5h6v-4.5H9z M27,21.9v4.5h6v-4.5H27z M16.5,21.9v4.5h9v-4.5H16.5z"
		/>
	<path class="st0" d="M9,13.6v0.8h6V9.8h-2C10.9,9.7,9.1,11.4,9,13.6L9,13.6z M27,9.8v4.5h6v-0.5c0-2.2-1.8-4-4-4L27,9.8z M16.5,9.8
		v4.5h9V9.8L16.5,9.8z"/>
</g>
</svg>
