<?xml version="1.0" encoding="utf-8"?>
<!-- Generator: Adobe Illustrator 22.1.0, SVG Export Plug-In . SVG Version: 6.00 Build 0)  -->
<svg version="1.1" id="图层_1" xmlns="http://www.w3.org/2000/svg" xmlns:xlink="http://www.w3.org/1999/xlink" x="0px" y="0px"
	 viewBox="0 0 42 42" style="enable-background:new 0 0 42 42;" xml:space="preserve">
<style type="text/css">
	.st0{fill:#5B8BFF;}
</style>
<path class="st0" d="M30.9,13.2l-9.5-4.1C21.2,9,21,9,20.8,9.1l-9.5,4.1c-0.3,0.1-0.5,0.4-0.5,0.8v9.9c0.1,4.8,8.4,8.5,10,9.1
	c0.2,0.1,0.4,0.1,0.6,0c1.6-0.7,9.9-4.3,9.9-9.2V14C31.4,13.6,31.2,13.3,30.9,13.2z M18.7,14v2c-1.3,0-2.4,1.1-2.4,2.4h-2
	C14.2,16,16.2,14,18.7,14z M18.7,27.5c-2.5,0-4.5-2.1-4.5-4.6h2c0,0,0,0.1,0,0.1c0,1.4,1.1,2.5,2.4,2.5V27.5z M22.1,24h-2v-2.1H18
	v-2h2.1v-2.1h2v2.1h2.3v2h-2.3V24z M23.5,27.4v-2c1.3,0,2.4-1.1,2.4-2.5h2C28,25.3,26,27.3,23.5,27.4z M26,18.6
	c0-1.3-1.1-2.4-2.4-2.4v-2c2.5,0,4.5,2,4.5,4.5H26z"/>
</svg>
