<?xml version="1.0" encoding="utf-8"?>
<!-- Generator: Adobe Illustrator 22.1.0, SVG Export Plug-In . SVG Version: 6.00 Build 0)  -->
<svg version="1.1" id="图层_1" xmlns="http://www.w3.org/2000/svg" xmlns:xlink="http://www.w3.org/1999/xlink" x="0px" y="0px"
	 viewBox="0 0 42 42" style="enable-background:new 0 0 42 42;" xml:space="preserve">
<style type="text/css">
	.st0{fill:#5B8BFF;}
</style>
<g>
	<path class="st0" d="M25.6,9h-5c-0.6,0-1.1,0.6-1.1,1.2v19h-1.4v-19C18.1,9.6,17.6,9,17,9h-4.9c-0.6,0-1.1,0.6-1.1,1.2v21.5
		c0,0.7,0.5,1.2,1.1,1.2H17c0.6,0,1.1-0.6,1.1-1.2v-0.8h1.4v0.8c0,0.7,0.5,1.2,1.1,1.2h5c0.6,0,1.1-0.6,1.1-1.2V10.2
		C26.6,9.6,26.2,9,25.6,9z M14.3,30.9h-1.4v-1.7h1.4V30.9z M16.3,12.7h-3.5V11h3.5V12.7L16.3,12.7z M22.8,30.9h-1.4v-1.7h1.4V30.9z
		 M24.9,12.7h-3.5V11h3.5L24.9,12.7L24.9,12.7z M29.2,31.8V10.3c0-0.6,0.4-1.1,0.9-1.2c0.6-0.1,1.2,0.5,1.2,1.2v21.6
		c0,0.7-0.5,1.3-1.2,1.2C29.6,32.9,29.2,32.4,29.2,31.8z"/>
</g>
</svg>
