<?xml version="1.0" encoding="utf-8"?>
<!-- Generator: Adobe Illustrator 22.1.0, SVG Export Plug-In . SVG Version: 6.00 Build 0)  -->
<svg version="1.1" id="图层_1" xmlns="http://www.w3.org/2000/svg" xmlns:xlink="http://www.w3.org/1999/xlink" x="0px" y="0px"
	 viewBox="0 0 42 42" style="enable-background:new 0 0 42 42;" xml:space="preserve">
<style type="text/css">
	.st0{fill:#5B8BFF;}
</style>
<g>
	<path class="st0" d="M14.5,19.9l0.7,1.8l-1.6,1.6L14.5,19.9z M16.8,20.1l-0.9-2.3h-2.7l-2.5,7.9h3.1l1.8-2.5l0.5,2.5h2.5l-1.4-4.3
		l2.1-1.8h0.5v6.1H22v-7.7c3.9-2,6.7-2.5,10.1-0.9c2,6.1-1.1,12.8-7.1,15.1c-6.4,2.4-13.5-1.2-15.5-7.7C7.7,18.4,11,11.7,17.1,9.6
		c5.9-2,12.4,1,14.8,6.9C25.8,12.4,16.8,20.1,16.8,20.1L16.8,20.1z M25.3,25.7l1.4-2.2l1.4,2.2h2.8l-2.5-3.6v-0.7l2.5-3.4H28
		l-1.1,1.8l-1.1-1.8H23l2.3,3.4v0.4l-2.8,3.8H25.3L25.3,25.7z"/>
</g>
</svg>
