<?xml version="1.0" encoding="utf-8"?>
<!-- Generator: Adobe Illustrator 22.1.0, SVG Export Plug-In . SVG Version: 6.00 Build 0)  -->
<svg version="1.1" id="图层_1" xmlns="http://www.w3.org/2000/svg" xmlns:xlink="http://www.w3.org/1999/xlink" x="0px" y="0px"
	 viewBox="0 0 42 42" style="enable-background:new 0 0 42 42;" xml:space="preserve">
<style type="text/css">
	.st0{fill:#5B8BFF;}
</style>
<path class="st0" d="M19.8,19.9c1.2,0,2.4-0.1,3.5-0.2c1.2-1,2.8-1.6,4.5-1.6c0.3,0,0.5,0.1,0.7,0.1c1.2-0.6,1.9-1.4,2.1-2.2h0v-1.5
	h0c0-0.1,0-0.2,0-0.3c0-2.3-4.8-4.2-10.8-4.2c-5.7,0-10.4,1.7-10.8,3.9v0.5c0,0,0,0,0,0.1h0V16h0C9.5,18.2,14.1,19.9,19.8,19.9z
	 M19.5,25.6c0.2,0,0.4,0,0.6,0c0-0.1,0-0.2,0-0.2c0-1.4,0.4-2.6,1.1-3.7c-0.5,0-1.1,0.1-1.6,0.1c-4.8,0-8.8-1.3-10.1-3
	c-0.2,0.3-0.4,0.6-0.4,0.9v0.5c0,0,0,0,0,0.1h0v1.5h0C9.5,23.9,14,25.6,19.5,25.6z M19.8,31.5c1.2,0,2.4-0.1,3.5-0.3
	c-1.2-0.9-2.2-2.2-2.6-3.7c-0.3,0-0.6,0-0.9,0c-4.9,0-9-1.3-10.3-3c-0.2,0.3-0.4,0.6-0.4,0.9V26c0,0,0,0,0,0.1h0v1.5h0
	C9.5,29.7,14.1,31.5,19.8,31.5L19.8,31.5z"/>
<g>
	<path class="st0" d="M28.3,24.5c0-0.3-0.2-0.4-0.5-0.4h-0.4v0.8h0.4C28.2,24.9,28.3,24.7,28.3,24.5z"/>
	<path class="st0" d="M27.9,25.6h-0.4v0.9h0.4c0.4,0,0.6-0.2,0.6-0.5C28.5,25.7,28.3,25.6,27.9,25.6z"/>
	<path class="st0" d="M24.1,24.1H24v2.3h0.1c0.6,0,1-0.3,1-1.2C25.1,24.4,24.6,24.1,24.1,24.1z"/>
	<path class="st0" d="M27.5,19.9c-3.1,0-5.5,2.5-5.5,5.5c0,3.1,2.5,5.5,5.5,5.5c3.1,0,5.5-2.5,5.5-5.5C33,22.4,30.5,19.9,27.5,19.9z
		 M24.2,27.2h-1.1v-3.8h1c1.1,0,1.8,0.6,1.8,1.9C25.9,26.6,25.2,27.2,24.2,27.2z M27.9,27.2h-1.3v-3.8h1.2c0.7,0,1.3,0.2,1.3,0.9
		c0,0.3-0.2,0.7-0.5,0.8v0c0.4,0.1,0.6,0.4,0.6,0.9C29.3,26.9,28.7,27.2,27.9,27.2z M29.7,27.2v-0.5c0.9-0.9,1.5-1.6,1.5-2.1
		c0-0.3-0.2-0.5-0.5-0.5c-0.2,0-0.4,0.2-0.6,0.4l-0.5-0.5c0.4-0.4,0.7-0.6,1.2-0.6c0.7,0,1.2,0.5,1.2,1.2c0,0.7-0.5,1.4-1.1,2
		c0.2,0,0.4-0.1,0.6-0.1h0.7v0.8H29.7z"/>
</g>
</svg>
