<?xml version="1.0" encoding="utf-8"?>
<!-- Generator: Adobe Illustrator 22.1.0, SVG Export Plug-In . SVG Version: 6.00 Build 0)  -->
<svg version="1.1" id="图层_1" xmlns="http://www.w3.org/2000/svg" xmlns:xlink="http://www.w3.org/1999/xlink" x="0px" y="0px"
	 viewBox="0 0 42 42" style="enable-background:new 0 0 42 42;" xml:space="preserve">
<style type="text/css">
	.st0{fill:#5B8BFF;}
</style>
<g>
	<path class="st0" d="M21.1,9.1c5.5,0,10,4.6,10,10.2c0,3.7-1.9,6.9-4.7,8.7c0.2,0.5,0.5,1.1,1,1.7c1.3,1.6,3.8,3.4,3.8,3.4H11.6
		c0,0,2.5-1.9,3.9-3.5c0.4-0.5,0.6-0.9,0.8-1.3c-3.2-1.8-5.2-5.2-5.2-8.9C11.1,13.7,15.6,9.1,21.1,9.1z M21.1,12.7
		c-3.6,0-6.5,3-6.5,6.6s2.9,6.6,6.5,6.6c3.6,0,6.5-3,6.5-6.6S24.7,12.7,21.1,12.7z M21.1,15.7c1.9,0,3.5,1.6,3.5,3.6
		s-1.6,3.6-3.5,3.6c-1.9,0-3.5-1.6-3.5-3.6S19.2,15.7,21.1,15.7z"/>
</g>
</svg>
