<?xml version="1.0" encoding="utf-8"?>
<!-- Generator: Adobe Illustrator 22.1.0, SVG Export Plug-In . SVG Version: 6.00 Build 0)  -->
<svg version="1.1" id="图层_1" xmlns="http://www.w3.org/2000/svg" xmlns:xlink="http://www.w3.org/1999/xlink" x="0px" y="0px"
	 viewBox="0 0 42 42" style="enable-background:new 0 0 42 42;" xml:space="preserve">
<style type="text/css">
	.st0{fill:#5B8BFF;}
</style>
<g>
	<path class="st0" d="M10.9,24.4h20.5v-6.8H10.9V24.4z M27.2,20c0.5,0,0.9,0.4,1,1c0,0.6-0.4,1-0.9,1c-0.5,0-0.9-0.4-1-1
		C26.3,20.5,26.7,20,27.2,20z M24.2,20c0.4,0,0.7,0.2,0.8,0.6c0.1,0.4,0.1,0.8-0.2,1.1c-0.3,0.3-0.6,0.4-1,0.2
		c-0.3-0.2-0.6-0.5-0.6-0.9C23.4,20.5,23.8,20,24.2,20L24.2,20z M13.8,20h5.1v2h-5.1V20z M11.8,33h18.8c0.5,0,0.9-0.4,0.9-0.9v-6
		H10.9v6C10.9,32.7,11.3,33,11.8,33z M27.2,28.6c0.5,0,0.9,0.4,1,1c0,0.6-0.4,1-0.9,1c-0.5,0-0.9-0.4-1-1
		C26.3,29.1,26.7,28.6,27.2,28.6z M24.2,28.6c0.4,0,0.7,0.2,0.8,0.6c0.1,0.4,0.1,0.8-0.2,1.1c-0.3,0.3-0.6,0.4-1,0.2
		c-0.3-0.2-0.6-0.5-0.6-0.9C23.4,29,23.8,28.6,24.2,28.6L24.2,28.6z M13.8,28.6h5.1v2h-5.1V28.6z M30.6,9H11.8
		c-0.5,0-0.9,0.4-0.9,0.9v6h20.5v-6C31.5,9.4,31.1,9,30.6,9z M18.9,13.5h-5.1v-2h5.1V13.5z M24.9,13.2c-0.3,0.3-0.6,0.4-1,0.2
		c-0.3-0.2-0.6-0.5-0.6-0.9c0-0.6,0.4-1,0.9-1c0.4,0,0.7,0.2,0.8,0.6C25.2,12.5,25.2,12.9,24.9,13.2z M27.2,13.5c-0.5,0-0.9-0.4-1-1
		c0-0.6,0.4-1,0.9-1c0.5,0,0.9,0.4,1,1C28.1,13,27.7,13.4,27.2,13.5z"/>
</g>
</svg>
