<svg id="图层_1" data-name="图层 1" xmlns="http://www.w3.org/2000/svg" viewBox="0 0 42 42"><defs><style>.cls-1{fill:#5b8bff;}</style></defs><title>24*24</title><path class="cls-1" d="M10.36,28.46l.27,0a1.93,1.93,0,0,0,1.87-2v-.07a2.18,2.18,0,0,0-.19-.79L16.05,21a1.28,1.28,0,0,0,.54.09A2.14,2.14,0,0,0,18,20.45l3.55,1.87a2,2,0,0,0,1.86,2,1.92,1.92,0,0,0,1.87-2v-.15l4.89-4.55a3,3,0,0,0,.79.17,1.94,1.94,0,0,0,1.87-2v0A2,2,0,0,0,31,13.75a1.92,1.92,0,0,0-1.88,2,.49.49,0,0,0,0,.12,1.5,1.5,0,0,0,.08.63l-4.62,4.27a1.82,1.82,0,0,0-1.13-.43,1.58,1.58,0,0,0-1.34.62l-3.56-2.05a1.87,1.87,0,1,0-3.74.09V19a3.08,3.08,0,0,0,.19.9l-3.64,4.55a1.67,1.67,0,0,0-.63-.11,1.93,1.93,0,0,0-1.86,2v.07A1.79,1.79,0,0,0,10.36,28.46Z"/></svg>