<svg id="图层_1" data-name="图层 1" xmlns="http://www.w3.org/2000/svg" viewBox="0 0 42 42"><defs><style>.cls-1{fill:#5b8bff;}</style></defs><title>24*24</title><path class="cls-1" d="M19.13,28.1a5.6,5.6,0,0,1,.26-3.33,6.12,6.12,0,0,1,2.54-2.95,16.86,16.86,0,0,1,5.72-2.28,22.48,22.48,0,0,1,5-.56.76.76,0,0,1,.82.45.77.77,0,0,1-.26.9,6.2,6.2,0,0,0-1.38,3.06c-.34,1.35-.68,2.73-1.05,4.07a7.2,7.2,0,0,1-.56,1.27A6.3,6.3,0,0,1,25,32.06a6.16,6.16,0,0,1-3.18-.41,7.52,7.52,0,0,1-1-.56c-.22.56-.45,1.12-.78,1.19a.7.7,0,0,1-.79-.41.75.75,0,0,1-.07-.41,4.24,4.24,0,0,1,.52-1.53,11.23,11.23,0,0,1,3.85-4.3,4.14,4.14,0,0,1,2.05-.82.72.72,0,0,0,.64-.78.67.67,0,0,0-.71-.64,8.34,8.34,0,0,0-1.57.37,11.13,11.13,0,0,0-4.11,3.44,7.87,7.87,0,0,0-.71.9Zm-.49,1.75H14.42a1.09,1.09,0,0,0-1.16,1v.26a1.09,1.09,0,0,0,1.16,1h3.69a5.92,5.92,0,0,1,.53-2.29Z"/><path class="cls-1" d="M28.87,11.49h-18A1.42,1.42,0,0,0,9.5,12.91v14a1.4,1.4,0,0,0,1.42,1.38h7.39l-.11-.48a6.56,6.56,0,0,1,.25-3.63A7.26,7.26,0,0,1,19,23.09V16.2a.5.5,0,0,1,.26-.45.47.47,0,0,1,.68.43V22a7.85,7.85,0,0,1,1.24-1c.42-.27.84-.5,1.27-.73V14.15a.51.51,0,0,1,.35-.49.48.48,0,0,1,.59.46v5.74a18.3,18.3,0,0,1,3.68-1.16,29.85,29.85,0,0,1,3.2-.49v-5.3a1.39,1.39,0,0,0-1.39-1.42Zm-15.61,12a.47.47,0,0,1-.59.45.49.49,0,0,1-.35-.49v-5.2a.51.51,0,0,1,.35-.49.48.48,0,0,1,.59.46Zm3.33.09a.47.47,0,0,1-.68.43.49.49,0,0,1-.25-.45V15.15a.52.52,0,0,1,.25-.45.47.47,0,0,1,.68.43Z"/></svg>