<svg id="图层_1" data-name="图层 1" xmlns="http://www.w3.org/2000/svg" viewBox="0 0 42 42"><defs><style>.cls-1{fill:#5b8bff;}</style></defs><title>24*24</title><path class="cls-1" d="M14.52,16.4v-.92a6.5,6.5,0,0,1,13,0v.92h1.88a1.85,1.85,0,0,1,1.85,1.85v12.9A1.85,1.85,0,0,1,29.39,33H12.76a1.85,1.85,0,0,1-1.85-1.85V18.25a1.85,1.85,0,0,1,1.85-1.85Zm5.65,9v2.87a.92.92,0,0,0,.88.92.85.85,0,0,0,.93-.9V25.39a2.71,2.71,0,0,0,1.8-2.52,2.71,2.71,0,1,0-5.41,0A2.54,2.54,0,0,0,20.17,25.39Zm-3.73-9.84v.85h9.27v-.92a4.6,4.6,0,0,0-4.84-4.63A4.68,4.68,0,0,0,16.44,15.55Z"/></svg>