<svg id="图层_1" data-name="图层 1" xmlns="http://www.w3.org/2000/svg" viewBox="0 0 42 42"><defs><style>.cls-1{fill:#5b8bff;}</style></defs><title>24*24</title><path class="cls-1" d="M30.47,9H11.53A2.53,2.53,0,0,0,9,11.53v3.85H33V11.53A2.53,2.53,0,0,0,30.47,9ZM9,17.2V30.47A2.53,2.53,0,0,0,11.53,33H30.47A2.53,2.53,0,0,0,33,30.47V17.2Zm8.2,10a1,1,0,1,1-1.34,1.35l-3.13-3.14a.94.94,0,0,1,0-1.33h0L15.86,21a.94.94,0,0,1,1.33,0h0a.93.93,0,0,1,0,1.34l-2.46,2.46Zm5.55-6.29L21,29a1,1,0,1,1-1.86-.39l1.71-8A.94.94,0,0,1,22,19.82,1,1,0,0,1,22.75,20.94Zm6.45,4.5-3.14,3.14a1,1,0,0,1-1.35-1.34h0l2.46-2.46-2.46-2.46a.94.94,0,0,1,0-1.33h0a1,1,0,0,1,1.34,0h0L29.2,24.1a1,1,0,0,1,0,1.34Z"/></svg>