<svg id="图层_1" data-name="图层 1" xmlns="http://www.w3.org/2000/svg" viewBox="0 0 42 42"><defs><style>.cls-1{fill:#5b8bff;}</style></defs><title>24*24</title><path class="cls-1" d="M31.72,26.91a.61.61,0,0,1-.73.2l-3.47-1.9.84,2.9c.11.3-.1.5-.42.6s-.52-.1-.63-.4l-1-3.9-4.94-2.6v5.4l2.94,2.9a.47.47,0,0,1,0,.7.52.52,0,0,1-.73,0l-2.21-2.2v3.8a.48.48,0,0,1-.52.5c-.31,0-.48-.5-.48-.5v-3.8l-2.25,2.1a.52.52,0,0,1-.73,0,.47.47,0,0,1,0-.7l3.1-2.9v-5.4l-5,2.7-1.05,3.9a.57.57,0,0,1-.63.4.55.55,0,0,1-.42-.6l.84-2.9-3.46,1.9a.58.58,0,0,1-.74-.2.52.52,0,0,1,.21-.7l3.47-1.9-3-.8a.55.55,0,0,1-.42-.6.58.58,0,0,1,.63-.4l4.1,1,4.93-2.7-5-2.6-4.09,1c-.32.1-.53-.1-.63-.4a.38.38,0,0,1,.31-.5l3.05-.8-3.36-1.9a.5.5,0,0,1-.21-.7.61.61,0,0,1,.73-.2l3.47,1.9-.84-2.9a.44.44,0,0,1,.31-.6.65.65,0,0,1,.63.4l1.05,3.9,4.95,2.7v-5.5l-3-2.9a.85.85,0,0,1,0-.7c.11-.2.53-.2.74,0l2.35,2.2V9.41s.17-.5.48-.5a.48.48,0,0,1,.52.5v3.8L23.54,11a.52.52,0,0,1,.73,0,.47.47,0,0,1,0,.7l-2.94,2.9V20l4.94-2.7,1-3.9a.58.58,0,0,1,.63-.4.54.54,0,0,1,.42.6l-.84,2.9L31,14.61a.56.56,0,0,1,.73.2c.21.3.11.5-.21.7l-3.46,1.9,3,.8a.54.54,0,0,1,.42.6.57.57,0,0,1-.63.4l-4.09-1.1-4.93,2.8,4.93,2.7,4.09-1.1c.32-.1.53.1.63.4s-.1.5-.42.6l-3,.8,3.46,1.9a.5.5,0,0,1,.21.7Z"/></svg>