<svg id="图层_1" data-name="图层 1" xmlns="http://www.w3.org/2000/svg" viewBox="0 0 42 42"><defs><style>.cls-1{fill:#5b8bff;}</style></defs><title>24*24</title><path class="cls-1" d="M11.11,24.33H31.65V17.52H11.11Zm16.24-4.4a1,1,0,0,1,1,1,1,1,0,0,1-.88,1,1,1,0,0,1-.08-2Zm-2.93,0a.94.94,0,0,1,.85.6,1.06,1.06,0,0,1-.19,1.08.93.93,0,0,1-1,.24,1,1,0,0,1-.58-.92,1,1,0,0,1,.91-1ZM14,19.91h5.13v2H14Zm-2,13H30.79a.86.86,0,0,0,.86-.85V26.12H11.11v5.95A.85.85,0,0,0,12,32.92Zm15.39-4.44a1,1,0,0,1,1,1,1,1,0,0,1-.88,1,1,1,0,0,1-.08-2Zm-2.93,0a.94.94,0,0,1,.85.6,1.06,1.06,0,0,1-.19,1.08.93.93,0,0,1-1,.24,1,1,0,0,1-.58-.92,1,1,0,0,1,.91-1ZM14,28.51h5.13v2H14ZM30.79,8.92H12a.86.86,0,0,0-.85.86v6H31.65v-6A.87.87,0,0,0,30.79,8.92ZM19.11,13.34H14v-2h5.13Zm6-.28a.93.93,0,0,1-1,.24,1,1,0,0,1-.58-.92,1,1,0,0,1,.91-1,.94.94,0,0,1,.85.6A1.06,1.06,0,0,1,25.08,13.06Zm2.35.32a1,1,0,1,1,.88-1A1,1,0,0,1,27.43,13.38Z"/></svg>