<svg id="图层_1" data-name="图层 1" xmlns="http://www.w3.org/2000/svg" viewBox="0 0 42 42"><defs><style>.cls-1{fill:#5b8bff;}</style></defs><title>24*24</title><path class="cls-1" d="M25.2,14a4.69,4.69,0,1,0-9.38,0H25.2Zm-3.49,8a6,6,0,0,1,4-1.5,5.89,5.89,0,0,1,2.38.49l0-3.74,2.6-2.49,0,0a1.13,1.13,0,0,0,0-1.58,1.12,1.12,0,0,0-1.57,0l-2.66,2.54H14.44l-2.66-2.54a1.11,1.11,0,1,0-1.54,1.6l0,0,2.68,2.57v4.24H9.68a1.08,1.08,0,0,0-1.07,1.27,1.11,1.11,0,0,0,1.11.89h3.22v1.84a4.93,4.93,0,0,0,.72,2.55l-2.93,2.8,0,0a1.12,1.12,0,0,0,0,1.57,1.13,1.13,0,0,0,1.59,0l2.85-2.72a8.47,8.47,0,0,0,4.32,1.77V17.45h2.28V22Zm10.63,9.94L30,29.58a5.25,5.25,0,1,0-4.39,2.2,5.15,5.15,0,0,0,3.2-1l2.33,2.33a.42.42,0,0,0,.6,0l.6-.6A.44.44,0,0,0,32.34,31.91Zm-6.58-1.64a3.76,3.76,0,1,1,3.75-4,3.79,3.79,0,0,1-3.75,4Z"/></svg>