<svg id="图层_1" data-name="图层 1" xmlns="http://www.w3.org/2000/svg" viewBox="0 0 42 42"><defs><style>.cls-1{fill:#5b8bff;}</style></defs><title>24*24</title><path class="cls-1" d="M21.88,30.89h0A1.19,1.19,0,0,1,20.72,30L17,17.61,15.26,23a1.2,1.2,0,0,1-1.14.82H10.37a1.17,1.17,0,0,1-1.11-1.55,1.14,1.14,0,0,1,1.11-.79h2.87l2.7-8.23a1.21,1.21,0,0,1,2.3,0L21.9,25.56l2.79-9.09a1.2,1.2,0,0,1,1.08-.85,1.22,1.22,0,0,1,1.17.73L29,21.43H32a1.2,1.2,0,0,1,1.22,1.15A1.18,1.18,0,0,1,32,23.77H28.24A1.22,1.22,0,0,1,27.13,23L26,20.34l-3,9.72A1.2,1.2,0,0,1,21.88,30.89Z"/></svg>