<svg id="图层_1" data-name="图层 1" xmlns="http://www.w3.org/2000/svg" viewBox="0 0 42 42"><defs><style>.cls-1{fill:#5b8bff;}</style></defs><title>24*24</title><path class="cls-1" d="M16,30h.73a.39.39,0,0,0,.36-.41.41.41,0,0,0-.36-.42h-.64a.44.44,0,0,0-.34.16.42.42,0,0,0,.28.67m-2.22,0h.67a.39.39,0,0,0,.37-.41.41.41,0,0,0-.37-.42h-.63a.45.45,0,0,0-.43.36.4.4,0,0,0,.37.47"/><path class="cls-1" d="M27.43,9.3H13.56A2.6,2.6,0,0,0,11,11.91V30.69a2.61,2.61,0,0,0,2.61,2.61H27.42A2.6,2.6,0,0,0,30,30.7h0V11.91A2.61,2.61,0,0,0,27.42,9.3h0M15.54,19.67s0,0,0,0l6.35-7.5a.39.39,0,0,1,.1-.08.68.68,0,0,1,.43-.13.58.58,0,0,1,.45.19.82.82,0,0,1,.15.62v0L22.18,17l3.33,0a.58.58,0,0,1,.49.28.69.69,0,0,1-.06.62s0,0,0,.06l-7.43,7.86a.42.42,0,0,1-.15.11A.91.91,0,0,1,18,26a.6.6,0,0,1-.44-.19.68.68,0,0,1-.15-.49s0-.07,0-.09L19,20.54H16.05a.59.59,0,0,1-.55-.29.51.51,0,0,1,0-.58m13,11a1.11,1.11,0,0,1-1.1,1.12H13.58a1.11,1.11,0,0,1-1.1-1.12v-3h16Z"/></svg>