<svg id="图层_1" data-name="图层 1" xmlns="http://www.w3.org/2000/svg" viewBox="0 0 42 42"><defs><style>.cls-1{fill:#5b8bff;}</style></defs><title>24*24</title><path class="cls-1" d="M15.85,14.7h8.82a1.7,1.7,0,0,0,1.7-1.7V11.25a1.7,1.7,0,0,0-1.7-1.7H16.06l-.21,0a1.47,1.47,0,0,0-1.7,1.5v2A1.7,1.7,0,0,0,15.85,14.7Z"/><path class="cls-1" d="M27.49,28.39a1.37,1.37,0,1,0,.19,2.45,1.23,1.23,0,0,0,.66-1.1v-.11A1.32,1.32,0,0,0,27.49,28.39Z"/><path class="cls-1" d="M27,26.37c-3,0-5.47,3.28-5.47,3.28s2.43,3.29,5.47,3.29,5.48-3.29,5.48-3.29S30,26.37,27,26.37ZM27,32h0a2.32,2.32,0,1,1,2.33-2.33A2.31,2.31,0,0,1,27,32Z"/><path class="cls-1" d="M19.52,29.92H14c-.21,0-.4-.28-.45-.69-.06-.59.16-1.11.44-1.11h5.85c.16,0,.31.18.39.45,1.3-1.35,3.82-3.51,6.73-3.51a7,7,0,0,1,3,.72v-11a2.43,2.43,0,0,0-2.41-2.45h-.22v.52a2.61,2.61,0,0,1-2.48,2.71H15.67a2.61,2.61,0,0,1-2.48-2.71v-.52H13a2.44,2.44,0,0,0-2.43,2.44h0V31.06A2.45,2.45,0,0,0,13,33.51H24A14,14,0,0,1,19.52,29.92Zm-5-10.9h5.4a.9.9,0,1,1,0,1.79H14.53a.92.92,0,0,1-.9-.69A.9.9,0,0,1,14.51,19Zm-1,5.21a.84.84,0,0,1,.12-.31.77.77,0,0,1,.68-.35H24.35a.87.87,0,0,1,.81,1.13A1.07,1.07,0,0,1,25,25a.74.74,0,0,1-.68.36h-10A.87.87,0,0,1,13.5,24.23Z"/></svg>