<svg id="图层_1" data-name="图层 1" xmlns="http://www.w3.org/2000/svg" viewBox="0 0 42 42"><defs><style>.cls-1{fill:#5b8bff;}</style></defs><title>24*24</title><path class="cls-1" d="M28.61,10.82c.48.45.86.83,1.15,1.13a8.09,8.09,0,0,1,.67.76,1.42,1.42,0,0,1,.28.53,1.58,1.58,0,0,1,.05.38v.43h-4a.66.66,0,0,1-.47-.21,1.59,1.59,0,0,1-.33-.47,2.35,2.35,0,0,1-.2-.56,1.63,1.63,0,0,1-.07-.45V9h.08a1.31,1.31,0,0,1,.44.07,2.17,2.17,0,0,1,.53.26c.19.13.44.31.73.54S28.16,10.42,28.61,10.82Zm-4.79,1.35A3.82,3.82,0,0,0,24,13.23a3.23,3.23,0,0,0,.48,1,2.78,2.78,0,0,0,.83.77,2.25,2.25,0,0,0,1.19.31h3.66V29.8a3,3,0,0,1-.29,1.34,3.12,3.12,0,0,1-.77,1,4.07,4.07,0,0,1-1.06.63,3,3,0,0,1-1.14.23H14.44a2.33,2.33,0,0,1-1-.29A4.5,4.5,0,0,1,12.33,32a4.43,4.43,0,0,1-.82-1,2.59,2.59,0,0,1-.33-1.22V12.27a3,3,0,0,1,.24-1.1,4.11,4.11,0,0,1,.64-1.06A4,4,0,0,1,13,9.32,2.18,2.18,0,0,1,14.14,9h9.68Zm1.73,16.41a1.43,1.43,0,0,0,1.1-.47A1.61,1.61,0,0,0,27.1,27a1.51,1.51,0,0,0-.48-1.11,1.45,1.45,0,0,0-1.09-.46H16.18a1.45,1.45,0,0,0-1.09.46A1.49,1.49,0,0,0,14.64,27a1.52,1.52,0,0,0,.45,1.12,1.42,1.42,0,0,0,1.09.47Zm1.55-7.89a1.61,1.61,0,0,0-.45-1.12,1.46,1.46,0,0,0-1.1-.46H16.21a1.47,1.47,0,0,0-1.1.46,1.58,1.58,0,0,0-.47,1.12,1.52,1.52,0,0,0,.45,1.12,1.5,1.5,0,0,0,1.09.45h9.35a1.48,1.48,0,0,0,1.09-.45A1.54,1.54,0,0,0,27.1,20.69Z"/></svg>