<svg id="图层_1" data-name="图层 1" xmlns="http://www.w3.org/2000/svg" viewBox="0 0 42 42"><defs><style>.cls-1{fill:#5b8bff;}</style></defs><title>24*24</title><path class="cls-1" d="M21.08,8.75a12,12,0,0,0,0,24,11.78,11.78,0,0,0,2.32-.23,6,6,0,0,1-1.26-7.68v-.23h.14a6.08,6.08,0,0,1,2.26-2h-2.4V19h3.6a14.15,14.15,0,0,1,0,3.12,6.18,6.18,0,0,1,1.56-.21,4.63,4.63,0,0,1,.54,0,13.76,13.76,0,0,0,0-2.94h2.85a1.35,1.35,0,0,1,.15.75,4.94,4.94,0,0,1,0,2.1c0,.3-.15.45-.15.75h-.55a6,6,0,0,1,2.28,2.09,11.81,11.81,0,0,0,.67-3.91A12,12,0,0,0,21.08,8.75ZM11.33,21.82a4.94,4.94,0,0,1,0-2.1c0-.3.15-.45.15-.75h2.7a14.46,14.46,0,0,0,0,3.6h-2.7A1.35,1.35,0,0,1,11.33,21.82Zm.75,3h2.4a17.58,17.58,0,0,0,1.65,4.5A10.66,10.66,0,0,1,12.08,24.85Zm2.4-8.16h-2.4a10.66,10.66,0,0,1,4-4.5A14.66,14.66,0,0,0,14.48,16.69ZM19.86,30.4c-1.35-.75-2.55-2.85-3.15-5.55h3.15ZM20,22.57h-3.6a14.46,14.46,0,0,1,0-3.6H20Zm0-5.88h-3.3c.75-2.7,1.95-4.8,3.3-5.4Zm2.28,0V11.14c1.35.75,2.55,2.85,3.15,5.55Zm5.42,0A17.58,17.58,0,0,0,26,12.19a10.66,10.66,0,0,1,4,4.5Z"/><path class="cls-1" d="M26.63,27.9h-1.2V25.71c0-.16-.09-.3-.2-.3a.18.18,0,0,0-.15.14L23.54,29a.42.42,0,0,0,.06.42.11.11,0,0,0,.1.06h1.21V31.7c0,.15.09.29.19.29a.19.19,0,0,0,.16-.14l1.53-3.48a.4.4,0,0,0-.05-.41A.14.14,0,0,0,26.63,27.9Z"/><path class="cls-1" d="M27.86,28.14a.49.49,0,0,0-.49.48.48.48,0,0,0,.49.47.47.47,0,0,0,.48-.47A.48.48,0,0,0,27.86,28.14Z"/><path class="cls-1" d="M28.89,26.9l-.34.33a2.15,2.15,0,0,1,.52,1.39A2.1,2.1,0,0,1,28.55,30l.34.34a2.54,2.54,0,0,0,0-3.44Z"/><path class="cls-1" d="M29.75,26.06l-.35.33a3.25,3.25,0,0,1,0,4.45l.35.34a3.72,3.72,0,0,0,0-5.12Z"/><path class="cls-1" d="M30.26,25.56a4.4,4.4,0,0,1,0,6.12l.34.34a4.88,4.88,0,0,0,0-6.8Z"/></svg>