<svg id="图层_1" data-name="图层 1" xmlns="http://www.w3.org/2000/svg" viewBox="0 0 42 42"><defs><style>.cls-1{fill:#5b8bff;}</style></defs><title>24*24</title><path class="cls-1" d="M32.28,30.77H9.78a.76.76,0,0,0-.74.56.74.74,0,0,0,.74.89H32.27a.76.76,0,0,0,.74-.56A.74.74,0,0,0,32.28,30.77ZM21.81,10.4V9a.75.75,0,0,0-.66-.76.72.72,0,0,0-.79.72v1.45a.72.72,0,0,0,.79.72A.75.75,0,0,0,21.81,10.4ZM26.94,13A.75.75,0,0,0,28,13l1.06-1.06A.75.75,0,1,0,28,10.86l-1.06,1.06A.74.74,0,0,0,26.94,13ZM14.06,13a.75.75,0,0,0,1.06-1.06l-1.06-1.06A.75.75,0,0,0,13,11.92Zm14.56,4.77a8.28,8.28,0,0,0-1.76-2.62,8.48,8.48,0,0,0-2.62-1.77,8.28,8.28,0,0,0-6.43,0,8.48,8.48,0,0,0-2.62,1.77,8.28,8.28,0,0,0-1.76,2.62A7.22,7.22,0,0,0,12.84,21v7.57h-.06a.71.71,0,0,0,.75.66h15a.79.79,0,0,0,.79-.7V21a8.85,8.85,0,0,0-.7-3.21ZM18,27.74H16.53V21a.75.75,0,0,1,.57-.74A.72.72,0,0,1,18,21Z"/></svg>