<svg id="图层_1" data-name="图层 1" xmlns="http://www.w3.org/2000/svg" viewBox="0 0 42 42"><defs><style>.cls-1{fill:#5b8bff;}</style></defs><title>24*24</title><path class="cls-1" d="M30.22,19.24a2.2,2.2,0,0,1,2.26,2.25,2,2,0,0,1-1.29,2.09,11.16,11.16,0,0,1-10.78,7.71A11.32,11.32,0,0,1,9.63,23.74a12.59,12.59,0,0,0,1.44-.65,9.78,9.78,0,0,0,9.34,6.59,9.91,9.91,0,0,0,9.17-6.1A2.23,2.23,0,0,1,28,21.49,2.2,2.2,0,0,1,30.22,19.24ZM20.57,8.85A11.28,11.28,0,0,1,31.19,16.4,9.68,9.68,0,0,0,29.9,17a10.25,10.25,0,0,0-9.33-6.75,9.68,9.68,0,0,0-9,6.11,2.21,2.21,0,0,1,1.6,2.2,2.27,2.27,0,0,1-2.3,2.14A2.31,2.31,0,0,1,8.5,18.65a2.15,2.15,0,0,1,1.29-2.09A11.46,11.46,0,0,1,20.57,8.85Z"/><path class="cls-1" d="M20.5,18.92a2.25,2.25,0,1,0-2.25-2.25,2.25,2.25,0,0,0,2.25,2.25ZM15.25,25.7a5.25,5.25,0,0,1,10.5,0Z"/></svg>