<svg id="图层_1" data-name="图层 1" xmlns="http://www.w3.org/2000/svg" viewBox="0 0 42 42"><defs><style>.cls-1{fill:#5b8bff;}</style></defs><title>24*24</title><path class="cls-1" d="M16.5,8.66h9.23a1.77,1.77,0,0,1,1.82,1.7v1.75a1.77,1.77,0,0,1-1.82,1.7H16.27a1.77,1.77,0,0,1-1.82-1.7v-2a1.55,1.55,0,0,1,1.82-1.5Z"/><path class="cls-1" d="M28.8,11.53h-.22v.53a2.69,2.69,0,0,1-2.66,2.71H16.08a2.69,2.69,0,0,1-2.66-2.71v-.53H13.2A2.53,2.53,0,0,0,10.6,14h0V30.18a2.52,2.52,0,0,0,2.59,2.44H28.8a2.52,2.52,0,0,0,2.6-2.43h0V14a2.52,2.52,0,0,0-2.59-2.44Zm-14,6.59h5.8a.9.9,0,1,1,0,1.8H14.81a1,1,0,0,1-1-.69.91.91,0,0,1,.93-1.11Zm12.46,11H14.75a1,1,0,0,1-1-.69.91.91,0,0,1,.94-1.1h12.5a1,1,0,0,1,1,.69A.91.91,0,0,1,27.25,29.14Zm0-4.55H14.71a.93.93,0,0,1-1-1.14.87.87,0,0,1,.16-.3,1,1,0,0,1,.84-.36H27.27a.93.93,0,0,1,1,1.14.73.73,0,0,1-.16.3A1,1,0,0,1,27.27,24.59Z"/></svg>