<svg id="图层_1" data-name="图层 1" xmlns="http://www.w3.org/2000/svg" viewBox="0 0 42 42"><defs><style>.cls-1{fill:#5b8bff;}</style></defs><title>24*24</title><path class="cls-1" d="M10.32,27.46l.27,0a1.92,1.92,0,0,0,1.87-2v-.07a2.18,2.18,0,0,0-.19-.79L16,20a1.23,1.23,0,0,0,.54.09A2.14,2.14,0,0,0,18,19.45l3.55,1.87a2,2,0,0,0,1.86,2,1.93,1.93,0,0,0,1.88-2,.13.13,0,0,1,0-.06v-.09l4.89-4.55a3.08,3.08,0,0,0,.8.17,1.94,1.94,0,0,0,1.86-2v0A2,2,0,0,0,31,12.75a1.92,1.92,0,0,0-1.88,2s0,.08,0,.12a1.36,1.36,0,0,0,.09.63l-4.62,4.27a1.83,1.83,0,0,0-1.14-.43,1.59,1.59,0,0,0-1.34.62l-3.56-2.05a1.87,1.87,0,1,0-3.74.09.13.13,0,0,0,0,.06,2.77,2.77,0,0,0,.18.9l-3.64,4.55a1.66,1.66,0,0,0-.62-.11,1.93,1.93,0,0,0-1.87,2v.07A1.79,1.79,0,0,0,10.32,27.46Z"/></svg>