<svg id="图层_1" data-name="图层 1" xmlns="http://www.w3.org/2000/svg" viewBox="0 0 42 42"><defs><style>.cls-1{fill:#5b8bff;}</style></defs><title>24*24</title><path class="cls-1" d="M20.93,19.7c6.62,0,12-1.67,12-3.75V13c0-2.08-5.38-3.75-12-3.75s-12,1.67-12,3.75v3c0,2.07,5.36,3.75,12,3.75Z"/><path class="cls-1" d="M20.93,26.43c6.62,0,12-1.67,12-3.75v-4.5c0,2.08-5.38,3.75-12,3.75s-12-1.67-12-3.75v4.5c0,2.06,5.36,3.75,12,3.75Z"/><path class="cls-1" d="M20.92,28.66c-6.63,0-12-1.67-12-3.75v4.5c0,2.06,5.36,3.75,12,3.75s12-1.67,12-3.75v-4.5c0,2.08-5.39,3.75-12,3.75Z"/></svg>