<svg id="图层_1" data-name="图层 1" xmlns="http://www.w3.org/2000/svg" viewBox="0 0 42 42"><defs><style>.cls-1{fill:#5b8bff;}</style></defs><title>24*24</title><path class="cls-1" d="M9.59,29.84h1.24V16.78A2.19,2.19,0,0,1,13,14.6h4.31V29.84h1V11.27a2.19,2.19,0,0,1,2.18-2.18h8.78a2.19,2.19,0,0,1,2.18,2.18V29.84H32.5a.55.55,0,0,1,.55.55v1a.54.54,0,0,1-.55.54H9.59a.54.54,0,0,1-.54-.54v-1a.51.51,0,0,1,.54-.53Zm17-4.37h2.15a.55.55,0,0,0,.55-.55v-1a.54.54,0,0,0-.55-.54H26.62a.54.54,0,0,0-.54.54v1A.55.55,0,0,0,26.62,25.47Zm0-4.38h2.15a.55.55,0,0,0,.55-.55v-1a.54.54,0,0,0-.55-.54H26.62a.54.54,0,0,0-.54.54v1A.55.55,0,0,0,26.62,21.09Zm0-4.38h2.15a.54.54,0,0,0,.55-.55v-1a.55.55,0,0,0-.55-.55H26.62a.55.55,0,0,0-.54.55v1A.54.54,0,0,0,26.62,16.71Zm-5.51,8.76h2.15a.55.55,0,0,0,.55-.55v-1a.55.55,0,0,0-.55-.54H21.11a.55.55,0,0,0-.55.54v1A.55.55,0,0,0,21.11,25.47Zm0-4.38h2.15a.55.55,0,0,0,.55-.55v-1a.55.55,0,0,0-.55-.54H21.11a.55.55,0,0,0-.55.54v1A.55.55,0,0,0,21.11,21.09Zm0-4.38h2.15a.55.55,0,0,0,.55-.55v-1a.55.55,0,0,0-.55-.55H21.11a.55.55,0,0,0-.55.55v1A.55.55,0,0,0,21.11,16.71ZM13,25.47h2.15a.55.55,0,0,0,.55-.55v-1a.55.55,0,0,0-.55-.54H13a.54.54,0,0,0-.54.54v1A.55.55,0,0,0,13,25.47Zm0-4.38h2.15a.55.55,0,0,0,.55-.55v-1a.55.55,0,0,0-.55-.54H13a.54.54,0,0,0-.54.55v1A.55.55,0,0,0,13,21.09Z"/></svg>