<svg id="图层_1" data-name="图层 1" xmlns="http://www.w3.org/2000/svg" viewBox="0 0 42 42"><defs><style>.cls-1{fill:#5b8bff;}</style></defs><title>24*24</title><path class="cls-1" d="M17.52,15.92a.9.9,0,0,0,.55-.23l5.26-5.22a.83.83,0,0,0,.23-.78A.71.71,0,0,0,23,9.14a.86.86,0,0,0-.78.23L17,14.59a.86.86,0,0,0-.19.87.72.72,0,0,0,.74.46M28.09,11a3,3,0,0,0-2.15-.87,3.1,3.1,0,0,0-2.15.87L10.33,24.52a.57.57,0,0,0-.18.37l-1.1,4.25a.84.84,0,0,0,.18.74.72.72,0,0,0,.73.18L14.22,29a1,1,0,0,0,.37-.18l13.5-13.51A3,3,0,0,0,28.09,11Z"/><path class="cls-1" d="M15.18,33.12a9.05,9.05,0,0,1-5-1.37.86.86,0,0,1,1-1.42c.19.09,4,2.61,9.34-.5s10.16.27,10.39.41a.78.78,0,0,1,.37.78.84.84,0,0,1-.51.69.87.87,0,0,1-.87-.1,8.21,8.21,0,0,0-8.51-.32,12.18,12.18,0,0,1-6.18,1.83"/></svg>