<svg id="图层_1" data-name="图层 1" xmlns="http://www.w3.org/2000/svg" viewBox="0 0 42 42"><defs><style>.cls-1{fill:#5b8bff;}</style></defs><title>24*24</title><path class="cls-1" d="M28.2,29.61H23.07a.79.79,0,0,0-.79-.78h-.59v-.25a9.91,9.91,0,1,0-1.28,0v.24h-.58a.78.78,0,0,0-.79.78H13.93a.67.67,0,0,0-.51.24.63.63,0,0,0,.49,1h5a.83.83,0,0,0,.85.79h.63v.5a.68.68,0,0,0,.46.65.64.64,0,0,0,.82-.57v-.58h.64a.83.83,0,0,0,.85-.79h5a.66.66,0,0,0,.52-.24A.64.64,0,0,0,28.2,29.61ZM29,17.91a4.19,4.19,0,0,1,0,1.73c0,.24-.13.37-.13.61H26.5a12.21,12.21,0,0,0,0-3h2.34A1.07,1.07,0,0,1,29,17.91Zm-.62-2.5h-2A14.33,14.33,0,0,0,25,11.71,8.7,8.7,0,0,1,28.35,15.41Zm-2,6.62h2A8.09,8.09,0,0,1,25,25.74,11.83,11.83,0,0,0,26.37,22ZM21.91,10.84c1.11.62,2.1,2.35,2.6,4.57h-2.6Zm-.1,6.45h3a12.21,12.21,0,0,1,0,3h-3Zm0,4.64h2.6c-.5,2.23-1.48,4-2.6,4.57Zm-8.9-2.29a4.19,4.19,0,0,1,0-1.73c0-.25.12-.37.12-.62h2.23a11.28,11.28,0,0,0,0,3H13A1.12,1.12,0,0,1,12.91,19.64ZM13.53,22h2a14.41,14.41,0,0,0,1.36,3.71A8.77,8.77,0,0,1,13.53,22Zm2-6.62h-2a8.74,8.74,0,0,1,3.33-3.7A12,12,0,0,0,15.5,15.41ZM19.94,26.6c-1.11-.61-2.1-2.34-2.6-4.57h2.6Zm.1-6.35h-3a12.21,12.21,0,0,1,0-3h3Zm0-4.84H17.32c.62-2.22,1.6-3.95,2.72-4.44Z"/></svg>