<svg id="图层_1" data-name="图层 1" xmlns="http://www.w3.org/2000/svg" viewBox="0 0 42 42"><defs><style>.cls-1{fill:#5b8bff;}</style></defs><title>24*24</title><path class="cls-1" d="M23.22,17.16A20.94,20.94,0,0,0,21,16a20.81,20.81,0,0,0-2.26,1.14,23,23,0,0,0-2.13,1.39,23.26,23.26,0,0,0-.14,2.53,23,23,0,0,0,.14,2.53A21.76,21.76,0,0,0,18.69,25,23.93,23.93,0,0,0,21,26.15,22.93,22.93,0,0,0,23.22,25a21.6,21.6,0,0,0,2.12-1.4,23,23,0,0,0,.14-2.53,22.52,22.52,0,0,0-.14-2.49l0-.07a21.92,21.92,0,0,0-2.08-1.36Zm-3.56-1.65-.54-.18c-.38.2-.76.4-1.14.62s-.73.44-1.09.68l-.12.55c.45-.31.93-.61,1.41-.89S19.16,15.75,19.66,15.51ZM17.75,28.22a2,2,0,0,0,.1.21l.09.2a18.67,18.67,0,0,0,3-1,18.89,18.89,0,0,0,3,1l.1-.2.1-.21a18.54,18.54,0,0,1-3.2-1A18.54,18.54,0,0,1,17.75,28.22Zm1.37-1.39c.18-.06.36-.11.54-.18-.5-.23-1-.5-1.47-.78s-1-.58-1.42-.88l.12.55c.36.23.72.46,1.1.68S18.74,26.63,19.12,26.83Zm-6-4.95-.14.19-.12.19a20.08,20.08,0,0,0,2.33,2.12,20.16,20.16,0,0,0,.67,3.08h.23l.23,0a17.79,17.79,0,0,1-.75-3.27A18.59,18.59,0,0,1,13.17,21.88Zm9.61-6.55-.54.18q.75.36,1.47.78c.49.28,1,.58,1.42.89L25,16.63c-.36-.24-.72-.47-1.1-.68s-.75-.42-1.13-.62Z"/><path class="cls-1" d="M30.32,21.53,30,21.08l.32-.44c1.49-2.15,1.86-4.12,1-5.56S28.63,13,26,13.19l-.55.06c-.07-.17-.15-.34-.22-.5-1.11-2.37-2.64-3.67-4.3-3.67s-3.18,1.3-4.3,3.67c-.07.16-.15.33-.22.5l-.55-.06c-2.6-.22-4.49.46-5.32,1.89s-.47,3.41,1,5.56c.11.15.21.29.33.44q-.18.23-.33.45c-1.49,2.14-1.85,4.12-1,5.55.72,1.26,2.26,1.93,4.38,1.93.3,0,.62,0,.94,0a5.14,5.14,0,0,0,.55-.06l.22.51c1.12,2.36,2.64,3.66,4.3,3.66s3.19-1.3,4.3-3.66c.08-.17.15-.34.22-.51L26,29c.33,0,.64,0,.94,0,2.12,0,3.66-.67,4.39-1.93.83-1.43.46-3.41-1-5.55Zm.33,5.15c-.68,1.17-2.12,1.8-4.1,1.8a8.71,8.71,0,0,1-.87,0l-.51-.05-.21.47c-1,2.21-2.46,3.42-4,3.42s-3-1.21-4-3.42l-.21-.47-.51.05a8.71,8.71,0,0,1-.87,0c-2,0-3.42-.63-4.09-1.8-.78-1.34-.44-3.18,1-5.18l.31-.42-.31-.41c-1.39-2-1.73-3.84-1-5.19s2.53-2,5-1.76l.51,0,.21-.47c1-2.2,2.46-3.41,4-3.41s3,1.21,4,3.42l.21.47.51-.06c2.43-.2,4.19.42,5,1.77s.43,3.18-1,5.18l-.3.42.3.41c1.39,2,1.73,3.84,1,5.18Z"/><path class="cls-1" d="M24.15,14l-.09-.22a1.86,1.86,0,0,1-.1-.2,20.9,20.9,0,0,0-3,1,20.4,20.4,0,0,0-3-1c0,.07-.07.13-.1.2l-.1.22a18.31,18.31,0,0,1,3.21,1A18.12,18.12,0,0,1,24.15,14Zm-9.09,5.84c0,.43,0,.86,0,1.29s0,.86,0,1.29l.42.38c0-.55-.06-1.11-.06-1.67s0-1.12.06-1.66Zm7.18,6.86.54.18c.38-.19.76-.4,1.14-.61s.73-.45,1.09-.68l.12-.55c-.45.3-.93.6-1.41.88S22.74,26.41,22.24,26.65Zm6.49-6.36.14-.19a1.27,1.27,0,0,1,.13-.19,19.26,19.26,0,0,0-2.34-2.12A20.29,20.29,0,0,0,26,14.7l-.22,0-.24,0A17.6,17.6,0,0,1,26.28,18a18,18,0,0,1,2.45,2.28Zm-1.89,2.08c0-.42,0-.85,0-1.29s0-.86,0-1.29c-.14-.13-.27-.25-.42-.37,0,.54.06,1.1.06,1.66s0,1.12-.06,1.66c.15-.12.28-.24.42-.37Zm-11.6-4.58a19.15,19.15,0,0,0-2.33,2.12l.13.19c0,.06.09.12.13.19A18.08,18.08,0,0,1,15.63,18a18.45,18.45,0,0,1,.74-3.27l-.23,0h-.22A18.79,18.79,0,0,0,15.24,17.79Zm11.42,6.59A20.08,20.08,0,0,0,29,22.26l-.12-.19-.14-.19a18.08,18.08,0,0,1-2.46,2.28,18.54,18.54,0,0,1-.74,3.26l.23,0,.23,0A20.16,20.16,0,0,0,26.66,24.38Z"/><path class="cls-1" d="M29.39,21.08l.3-.41c1.39-2,1.73-3.84,1-5.19s-2.54-2-5-1.76l-.51,0L25,13.3c-1-2.2-2.46-3.41-4-3.41s-3,1.21-4,3.42l-.21.47-.51-.06c-2.43-.2-4.19.42-5,1.77s-.44,3.18,1,5.18l.31.42c-.11.13-.21.27-.31.41-1.39,2-1.73,3.84-1,5.18.67,1.18,2.11,1.8,4.09,1.8l.87,0,.51-.06.21.47c1,2.21,2.46,3.42,4,3.42s3-1.21,4-3.42l.21-.47.51.06.87,0c2,0,3.42-.62,4.1-1.8.77-1.34.43-3.18-1-5.18Zm-3.63-6.36.23,0c1.88-.11,3.25.35,3.79,1.28S30,18.34,29,19.91l-.12.18-.14.19A18,18,0,0,0,26.27,18a18.45,18.45,0,0,0-.74-3.27Zm.66,4.7c.15.12.28.25.42.37a16.88,16.88,0,0,1,1.26,1.29,15.23,15.23,0,0,1-1.26,1.29c-.14.13-.27.26-.42.38,0-.55.06-1.1.06-1.66S26.46,20,26.42,19.42ZM25,25.54a14,14,0,0,1-.48,1.73,13.18,13.18,0,0,1-1.75-.44l-.54-.18q.75-.36,1.47-.78c.49-.28,1-.58,1.42-.89l-.12.56Zm-1,2.89-.09.2c-.84,1.69-1.93,2.65-3,2.65s-2.17-1-3-2.65c0-.06-.07-.13-.1-.2l-.1-.21a18.27,18.27,0,0,0,3.2-1,18.37,18.37,0,0,0,3.21,1ZM16.77,25c.46.3.93.6,1.42.88s1,.54,1.47.78c-.18.07-.36.12-.54.18a15,15,0,0,1-1.75.45,14.73,14.73,0,0,1-.48-1.74L16.77,25Zm.12-8.36a14.73,14.73,0,0,1,.48-1.74,15,15,0,0,1,1.75.45l.54.17c-.5.24-1,.5-1.47.79s-1,.57-1.42.88Zm1-2.9.09-.2c.84-1.68,1.93-2.64,3-2.64s2.17,1,3,2.64l.1.2c0,.07.07.14.1.22a18.47,18.47,0,0,0-3.2,1,18.31,18.31,0,0,0-3.21-1C17.78,13.87,17.81,13.8,17.85,13.73Zm7.28,3.45c-.45-.31-.93-.61-1.41-.89s-1-.54-1.47-.78l.53-.18a17.92,17.92,0,0,1,1.75-.44A16,16,0,0,1,25,16.62C25.05,16.81,25.09,17,25.13,17.18Zm.35,3.9a23,23,0,0,1-.14,2.53A23,23,0,0,1,23.21,25,23.93,23.93,0,0,1,21,26.15,22.93,22.93,0,0,1,18.68,25a21.6,21.6,0,0,1-2.12-1.4,23,23,0,0,1-.14-2.53,23.26,23.26,0,0,1,.14-2.53,21.54,21.54,0,0,1,2.12-1.39A20.94,20.94,0,0,1,21,16a21.76,21.76,0,0,1,2.26,1.14,22.08,22.08,0,0,1,2.09,1.36l0,0v.05A22.21,22.21,0,0,1,25.48,21.08Zm-9.11-6.34A18.45,18.45,0,0,0,15.63,18a18.69,18.69,0,0,0-2.46,2.27L13,20.09l-.12-.18c-1-1.57-1.33-3-.79-3.93s1.64-1.3,3.24-1.3l.55,0,.23,0Zm-.89,8-.42-.38a15.23,15.23,0,0,1-1.26-1.29,15.23,15.23,0,0,1,1.26-1.29c.14-.13.27-.25.42-.37,0,.54-.06,1.1-.06,1.66S15.44,22.2,15.48,22.75Zm.66,4.7h-.23c-1.88.12-3.25-.34-3.79-1.28s-.25-2.36.79-3.92l.12-.19.14-.19a18.08,18.08,0,0,0,2.46,2.28,18.65,18.65,0,0,0,.74,3.27l-.23,0Zm9.39,0a17.68,17.68,0,0,0,.75-3.26,18,18,0,0,0,2.45-2.28l.14.19.13.19c1,1.56,1.32,3,.78,3.92s-1.91,1.4-3.79,1.28l-.22,0Z"/></svg>