<svg id="图层_1" data-name="图层 1" xmlns="http://www.w3.org/2000/svg" viewBox="0 0 42 42"><defs><style>.cls-1{fill:#5b8bff;}</style></defs><title>24*24</title><path class="cls-1" d="M21.08,8.75a12,12,0,0,0,0,24,11.78,11.78,0,0,0,2.32-.23,6,6,0,0,1-1.26-7.68v-.23h.14a6.08,6.08,0,0,1,2.26-2h-2.4V19h3.6a14.15,14.15,0,0,1,0,3.12,6.18,6.18,0,0,1,1.56-.21,4.63,4.63,0,0,1,.54,0,13.76,13.76,0,0,0,0-2.94h2.85a1.35,1.35,0,0,1,.15.75,4.94,4.94,0,0,1,0,2.1c0,.3-.15.45-.15.75h-.55a6,6,0,0,1,2.28,2.09,11.81,11.81,0,0,0,.67-3.91A12,12,0,0,0,21.08,8.75ZM11.33,21.82a4.94,4.94,0,0,1,0-2.1c0-.3.15-.45.15-.75h2.7a14.46,14.46,0,0,0,0,3.6h-2.7A1.35,1.35,0,0,1,11.33,21.82Zm.75,3h2.4a17.58,17.58,0,0,0,1.65,4.5A10.66,10.66,0,0,1,12.08,24.85Zm2.4-8.16h-2.4a10.66,10.66,0,0,1,4-4.5A14.66,14.66,0,0,0,14.48,16.69ZM19.86,30.4c-1.35-.75-2.55-2.85-3.15-5.55h3.15ZM20,22.57h-3.6a14.46,14.46,0,0,1,0-3.6H20Zm0-5.88h-3.3c.75-2.7,1.95-4.8,3.3-5.4Zm2.28,0V11.14c1.35.75,2.55,2.85,3.15,5.55Zm5.42,0A17.58,17.58,0,0,0,26,12.19a10.66,10.66,0,0,1,4,4.5Z"/><path class="cls-1" d="M31.54,27.3a.37.37,0,0,0-.15,0h-.33a.51.51,0,0,1-.45-.31l-.23-.56a.46.46,0,0,1,.08-.53l.32-.32a.25.25,0,0,0,.09-.2.29.29,0,0,0-.09-.21l-.55-.53a.32.32,0,0,0-.21-.08.35.35,0,0,0-.22.08l-.32.32a.5.5,0,0,1-.55.07l-.58-.23a.47.47,0,0,1-.33-.43v-.44a.32.32,0,0,0-.08-.21.35.35,0,0,0-.22-.08h-.78a.34.34,0,0,0-.21.08.29.29,0,0,0-.09.21v.45a.46.46,0,0,1-.32.43l-.55.23a.47.47,0,0,1-.53-.08l-.32-.31a.28.28,0,0,0-.2-.08.3.3,0,0,0-.21.08l-.53.53a.31.31,0,0,0-.09.21.29.29,0,0,0,.09.2l.31.31a.47.47,0,0,1,.08.53l-.23.56a.48.48,0,0,1-.43.31h-.44a.29.29,0,0,0-.21.09.3.3,0,0,0-.08.2v.75a.28.28,0,0,0,.08.21.32.32,0,0,0,.21.08h.5a.48.48,0,0,1,.43.32l.23.56a.49.49,0,0,1-.07.53l-.31.31a.22.22,0,0,0-.08.13.28.28,0,0,0,.07.28l.53.54a.32.32,0,0,0,.21.08.3.3,0,0,0,.2-.08l.32-.32a.47.47,0,0,1,.52-.08l.56.23a.5.5,0,0,1,.32.44V32a.26.26,0,0,0,.08.2.27.27,0,0,0,.2.09h.75a.29.29,0,0,0,.21-.09A.28.28,0,0,0,28,32v-.46a.5.5,0,0,1,.32-.43l.56-.23a.49.49,0,0,1,.53.08l.31.31a.29.29,0,0,0,.21.09.27.27,0,0,0,.2-.09l.54-.53a.28.28,0,0,0,.08-.2.32.32,0,0,0-.08-.21L30.37,30a.49.49,0,0,1-.08-.53l.23-.55a.5.5,0,0,1,.44-.32h.44a.3.3,0,0,0,.2-.08.29.29,0,0,0,.09-.21v-.75A.3.3,0,0,0,31.54,27.3ZM29,27.93a1.67,1.67,0,1,1-1.67-1.67A1.67,1.67,0,0,1,29,27.93Z"/></svg>