<svg id="图层_1" data-name="图层 1" xmlns="http://www.w3.org/2000/svg" viewBox="0 0 42 42"><defs><style>.cls-1{fill:#5b8bff;}</style></defs><title>24*24</title><path class="cls-1" d="M29,18.56s1.79.78,1.66,4.78l1.29,1.26a11.47,11.47,0,0,0,.87-5.75s0-2.49-4.56-5.79a1.8,1.8,0,0,1-2.08-2L24.38,9.27l-3.24,3.17L22.72,14s3.9.16,2.53,3.3l-5.84,5.79-1.12-.16L11.61,29.5a2.6,2.6,0,0,0,.71,2.57,3,3,0,0,0,2.32.86l6.55-6.69.12-1.11L28,18.6A.63.63,0,0,1,29,18.56Zm-12.64.74,2.11,2.08,2.86-2.82L19.12,16.4c2.32-5.22-4.36-7.26-4.36-7.26-1.24-.33-1,.61-1,.61C16.38,11.87,16,12.57,16,12.57A4.53,4.53,0,0,1,13.47,16c-2.15.89-3.93-2.08-3.93-2.08-.71-.13-.63.65-.63.65,1.74,7.55,7.43,4.77,7.43,4.77ZM32.48,29.48l-6.56-6.22L23,26.11l6.22,6.51a.62.62,0,0,0,.37.19.49.49,0,0,0,.31-.11l2.61-2.57a.4.4,0,0,0,.11-.31.47.47,0,0,0-.16-.34Zm-1.61,0-.36,1.1a.37.37,0,0,1-.32.23H29a.37.37,0,0,1-.32-.23l-.36-1.1a.34.34,0,0,1,.13-.37l.94-.67a.36.36,0,0,1,.4,0l1,.67A.35.35,0,0,1,30.87,29.49Z"/></svg>