<svg id="图层_1" data-name="图层 1" xmlns="http://www.w3.org/2000/svg" viewBox="0 0 42 42"><defs><style>.cls-1{fill:#5b8bff;}</style></defs><title>24*24</title><path class="cls-1" d="M16.35,33.66c-1.63-3.35-.77-5.27.52-7a11.31,11.31,0,0,0,1.72-3.93,4.4,4.4,0,0,1,.68,3.52,9,9,0,0,0,2-6.69c4.3,2.92,6.19,9.36,3.7,14,13.24-7.35,3.27-18.31,1.55-19.48.6,1.25.68,3.34-.52,4.35-2-7.36-6.88-8.78-6.88-8.78.6,3.76-2.06,7.86-4.64,11a7.79,7.79,0,0,0-1-4c-.18,2.76-2.33,4.93-2.93,7.69C9.73,28.06,11.1,30.73,16.35,33.66Z"/></svg>