<svg id="图层_1" data-name="图层 1" xmlns="http://www.w3.org/2000/svg" viewBox="0 0 42 42"><defs><style>.cls-1{fill:#5b8bff;}</style></defs><title>24*24</title><path class="cls-1" d="M22.27,15.67a.92.92,0,0,0-.93-1h-.93v1.94h.89A1,1,0,0,0,22.27,15.67ZM30.72,25a2.53,2.53,0,0,0,2.52-2.51V11.84a2.52,2.52,0,0,0-2.52-2.51h-19a2.52,2.52,0,0,0-2.51,2.51V22.51A2.52,2.52,0,0,0,11.75,25h8.51v2h-.91a1.21,1.21,0,0,0-1.21,1.2H10.3a1,1,0,0,0-.8.37,1,1,0,0,0,.75,1.6H18a1.26,1.26,0,0,0,1.31,1.2h1v.78a1,1,0,0,0,.7,1,1,1,0,0,0,1.26-.86v-.91h1a1.26,1.26,0,0,0,1.31-1.2h7.67a1,1,0,0,0,.8-.37,1,1,0,0,0-.75-1.6h-7.9A1.21,1.21,0,0,0,23.12,27h-.9V25ZM24,14.26a.59.59,0,0,1,.67-.67.89.89,0,0,1,.59.3l2.83,3.79V14.33a.69.69,0,0,1,.64-.68c.52,0,.78.22.78.71v4.95a.67.67,0,0,1-.6.67.9.9,0,0,1-.66-.22L25.43,16v3.27a.68.68,0,0,1-.63.68c-.53,0-.79-.22-.79-.63Zm-5.3.3-1.93,5a.72.72,0,0,1-1.33,0l-1.93-5v-.12a.91.91,0,0,1,.14-.51c.31-.47.84-.44,1.12.12l1.41,3.7,1.33-3.7a.7.7,0,0,1,.59-.45c.45.07.67.3.67.67A.56.56,0,0,1,18.71,14.56Zm1.12,5.32a.54.54,0,0,1-.62-.58v-5a.67.67,0,0,1,.67-.67h1.47a2,2,0,0,1,2.08,2.13,2,2,0,0,1-2.08,2.14h-.9v1.47C20.45,19.66,20.25,19.88,19.83,19.88Z"/></svg>