<svg id="图层_1" data-name="图层 1" xmlns="http://www.w3.org/2000/svg" viewBox="0 0 42 42"><defs><style>.cls-1{fill:#5b8bff;}</style></defs><title>24*24</title><path class="cls-1" d="M30.87,32.42H11.13a2,2,0,0,1-2.13-2V28a2,2,0,0,1,2-2H30.87A2.13,2.13,0,0,1,33,28.12v2.27A2,2,0,0,1,30.87,32.42Zm-2.4-4.72A1.55,1.55,0,1,0,30,29.21,1.55,1.55,0,0,0,28.47,27.7Zm2.4-3.2H11.13a2,2,0,0,1-2.13-2V20.1a2,2,0,0,1,2-2H30.87A2.13,2.13,0,0,1,33,20.2v2.27a2.05,2.05,0,0,1-2.13,2Zm-2.35-4.76a1.55,1.55,0,0,0,0,3.09,1.55,1.55,0,1,0,.08-3.09Zm2.35-3.17H11.13a2,2,0,0,1-2.13-2V12.18a2.05,2.05,0,0,1,2.13-2H30.87a2.06,2.06,0,0,1,2.13,2v2.36a2,2,0,0,1-2.13,2Zm-2.4-4.79A1.55,1.55,0,1,0,30,13.32,1.54,1.54,0,0,0,28.47,11.78Z"/></svg>