<svg id="图层_1" data-name="图层 1" xmlns="http://www.w3.org/2000/svg" viewBox="0 0 42 42"><defs><style>.cls-1{fill:#5b8bff;}</style></defs><title>24*24</title><path class="cls-1" d="M10.12,9.78H18a1.1,1.1,0,0,1,1.1,1.1v7.83a1.1,1.1,0,0,1-1.1,1.1H10.13A1.11,1.11,0,0,1,9,18.7H9V10.88A1.1,1.1,0,0,1,10.12,9.78Zm15.52-.42a1.1,1.1,0,0,1,1.57,0h0l5.48,5.48a1.12,1.12,0,0,1,0,1.57h0l-5.48,5.48a1.11,1.11,0,0,1-1.57,0h0l-5.48-5.48a1.1,1.1,0,0,1,0-1.57l5.48-5.48Zm-4,14.56a1.11,1.11,0,0,1,1.11-1.11h7.82a1.1,1.1,0,0,1,1.1,1.1v7.83a1.1,1.1,0,0,1-1.1,1.1H22.71a1.11,1.11,0,0,1-1.11-1.11h0V23.92ZM9,23.92a1.11,1.11,0,0,1,1.11-1.11H18a1.1,1.1,0,0,1,1.1,1.1v7.83a1.1,1.1,0,0,1-1.1,1.1H10.12A1.1,1.1,0,0,1,9,31.74H9V23.92Z"/></svg>