<svg id="图层_1" data-name="图层 1" xmlns="http://www.w3.org/2000/svg" viewBox="0 0 42 42"><defs><style>.cls-1{fill:#5b8bff;}</style></defs><title>24*24</title><path class="cls-1" d="M16.35,14.15h8.82a1.7,1.7,0,0,0,1.7-1.7V10.7A1.7,1.7,0,0,0,25.17,9H16.56l-.21,0a1.47,1.47,0,0,0-1.7,1.5v2A1.7,1.7,0,0,0,16.35,14.15Z"/><path class="cls-1" d="M28,27.84a1.37,1.37,0,1,0,.19,2.46,1.25,1.25,0,0,0,.66-1.11v-.11A1.32,1.32,0,0,0,28,27.84Z"/><path class="cls-1" d="M27.47,25.83c-3,0-5.47,3.27-5.47,3.27s2.43,3.29,5.47,3.29S33,29.1,33,29.1,30.51,25.83,27.47,25.83Zm0,5.64h0a2.32,2.32,0,1,1,2.33-2.33A2.33,2.33,0,0,1,27.5,31.46Z"/><path class="cls-1" d="M20,29.37H14.51c-.21,0-.4-.28-.45-.69-.06-.59.16-1.11.44-1.11h5.85c.16,0,.31.18.39.46,1.3-1.36,3.82-3.52,6.73-3.52a7,7,0,0,1,3,.72v-11a2.43,2.43,0,0,0-2.41-2.45h-.22v.52A2.6,2.6,0,0,1,25.35,15H16.17a2.6,2.6,0,0,1-2.48-2.71v-.52h-.21a2.44,2.44,0,0,0-2.43,2.44h0V30.51A2.44,2.44,0,0,0,13.47,33h11A13.87,13.87,0,0,1,20,29.37Zm-5-10.9h5.4a.9.9,0,1,1,0,1.79H15a.92.92,0,0,1-.9-.69A.9.9,0,0,1,15,18.47Zm-1,5.21a.79.79,0,0,1,.12-.3A.75.75,0,0,1,14.8,23H24.85a.87.87,0,0,1,.81,1.13,1.07,1.07,0,0,1-.13.31.74.74,0,0,1-.68.36h-10A.87.87,0,0,1,14,23.68Z"/></svg>