<svg id="图层_1" data-name="图层 1" xmlns="http://www.w3.org/2000/svg" viewBox="0 0 42 42"><defs><style>.cls-1{fill:#5b8bff;}</style></defs><title>24*24</title><path class="cls-1" d="M31.21,11.4H10.33A1.56,1.56,0,0,0,8.77,13V24.12a1.3,1.3,0,0,0,.48,1.08,1.79,1.79,0,0,0,1.08.48H31.21a1.3,1.3,0,0,0,1.08-.48,1.79,1.79,0,0,0,.48-1.08V13A1.56,1.56,0,0,0,31.21,11.4Zm-.84,11.88c0,.24-.12.36-.24.6a.92.92,0,0,1-.6.24h-4V23.4a.84.84,0,0,1,.84-.84h3.24c.36-.12.72.24.72.72Zm.72-3.48a1,1,0,0,1-1,1H10.45v-.48a1.71,1.71,0,0,1,.24-.72.73.73,0,0,1,.72-.36h19.8v.6ZM12.73,27.28a.76.76,0,0,1,.84.84v3.24a.76.76,0,0,1-.84.84.76.76,0,0,1-.84-.84V28.12c.12-.6.36-.84.84-.84Zm3.24,0a.76.76,0,0,1,.84.84v3.24a.76.76,0,0,1-.84.84.76.76,0,0,1-.84-.84V28.12a.76.76,0,0,1,.84-.84Zm3.24,0a.76.76,0,0,1,.84.84v3.24a.84.84,0,1,1-1.68,0V28.12c0-.6.24-.84.84-.84Zm3.12,0a.76.76,0,0,1,.84.84v3.24a.84.84,0,1,1-1.68,0V28.12c.12-.6.36-.84.84-.84Zm3.24,0c-.24,0-.36.12-.6.24a.92.92,0,0,0-.24.6v3.24a.86.86,0,0,0,.36.72,1,1,0,0,0,.84,0,.73.73,0,0,0,.36-.72V28.12c0-.24-.12-.36-.24-.6a.62.62,0,0,0-.48-.24Zm3.12,0c-.24,0-.36.12-.6.24a.92.92,0,0,0-.24.6v3.24a.84.84,0,1,0,1.68,0V28.12c0-.24-.12-.36-.24-.6a.92.92,0,0,0-.6-.24Z"/></svg>