<svg id="图层_1" data-name="图层 1" xmlns="http://www.w3.org/2000/svg" viewBox="0 0 42 42"><defs><style>.cls-1{fill:#5b8bff;}</style></defs><title>24*24</title><path class="cls-1" d="M26.38,24.81a.55.55,0,0,1,.55-.55h2.15a.53.53,0,0,1,.51.39,5.36,5.36,0,0,1,1.66.72V17.69a2.19,2.19,0,0,0-2.18-2.18H24.76V25.75a5.58,5.58,0,0,1,1.62-.94Zm0-4.38a.55.55,0,0,1,.55-.54h2.15a.55.55,0,0,1,.55.54v1a.55.55,0,0,1-.55.54H26.93a.55.55,0,0,1-.55-.54Z"/><path class="cls-1" d="M21.61,10H12.85a2.19,2.19,0,0,0-2.18,2.18V30.74H9.59a.55.55,0,0,0-.54.55v1a.55.55,0,0,0,.54.55H23.71a5.4,5.4,0,0,1,.08-6.06V12.18A2.19,2.19,0,0,0,21.61,10ZM16,25.82a.55.55,0,0,1-.54.55H13.32a.55.55,0,0,1-.55-.55v-1a.55.55,0,0,1,.55-.55h2.15a.54.54,0,0,1,.54.55Zm0-4.37a.54.54,0,0,1-.54.54H13.32a.55.55,0,0,1-.55-.54v-1a.55.55,0,0,1,.55-.54h2.15a.54.54,0,0,1,.54.54Zm0-4.38a.55.55,0,0,1-.54.55H13.32a.55.55,0,0,1-.55-.55v-1a.55.55,0,0,1,.55-.55h2.15a.54.54,0,0,1,.54.54Zm5.51,8.75a.55.55,0,0,1-.54.55H18.83a.55.55,0,0,1-.55-.55v-1a.55.55,0,0,1,.55-.55H21a.54.54,0,0,1,.54.55Zm0-4.37A.54.54,0,0,1,21,22H18.83a.55.55,0,0,1-.55-.54v-1a.55.55,0,0,1,.55-.54H21a.54.54,0,0,1,.54.54Zm0-4.38a.55.55,0,0,1-.54.55H18.83a.55.55,0,0,1-.55-.55v-1a.55.55,0,0,1,.55-.55H21a.54.54,0,0,1,.54.54Z"/><path class="cls-1" d="M28.24,25.77a4.12,4.12,0,1,0,4.12,4.11A4.13,4.13,0,0,0,28.24,25.77Zm2.68,2.93-3.45,3.45-1.91-1.91a.51.51,0,0,1,0-.72.52.52,0,0,1,.73,0l1.18,1.19L30.2,28a.49.49,0,0,1,.72,0A.51.51,0,0,1,30.92,28.7Z"/></svg>